<?xml version="1.0" encoding="UTF-8"?>
<svg width="39px" height="24px" viewBox="0 0 39 24" version="1.1" xmlns="http://www.w3.org/2000/svg" xmlns:xlink="http://www.w3.org/1999/xlink">
    <!-- Generator: Sketch 58 (84663) - https://sketch.com -->
    <title>006-air-conditioner</title>
    <desc>Created with Sketch.</desc>
    <g id="Page-1" stroke="none" stroke-width="1" fill="none" fill-rule="evenodd">
        <g id="Property-details" transform="translate(-823.000000, -1170.000000)" fill="#000000" fill-rule="nonzero">
            <g id="Blocks/Recommended/features/icon" transform="translate(223.000000, 1086.000000)">
                <g id="icon-copy-6">
                    <g transform="translate(600.000000, 77.000000)">
                        <g id="006-air-conditioner" transform="translate(0.000000, 7.000000)">
                            <path d="M36.2588323,0 L9.27294827,0 C8.95677125,0 8.70044039,0.261007036 8.70044039,0.58312564 C8.70044039,0.905244243 8.95677125,1.16625128 9.27294827,1.16625128 L36.2588323,1.16625128 C37.1389677,1.16625128 37.8549842,1.89554708 37.8549842,2.79200556 L37.8549842,15.2079944 C37.8549842,16.1044529 37.1389677,16.8337487 36.2588323,16.8337487 L34.8879431,16.8337487 L34.8879431,13.0343353 C34.8879431,12.7122167 34.6316122,12.4512097 34.3154352,12.4512097 L4.68448846,12.4512097 C4.36831144,12.4512097 4.11198058,12.7122167 4.11198058,13.0343353 L4.11198058,16.8337487 L2.74116772,16.8337487 C1.86103228,16.8337487 1.14501576,16.1044529 1.14501576,15.2079944 L1.14501576,2.79200556 C1.14501576,1.89554708 1.86103228,1.16625128 2.74116772,1.16625128 L6.98291676,1.16625128 C7.29909377,1.16625128 7.55542463,0.905244243 7.55542463,0.58312564 C7.55542463,0.261007036 7.29909377,0 6.98291676,0 L2.74116772,0 C1.22967059,0 0,1.25247612 0,2.79200556 L0,15.2079944 C0,16.7475239 1.22967059,18 2.74116772,18 L8.70066939,18 C9.01684641,18 9.27317727,17.738993 9.27317727,17.4168744 C9.27317727,17.0948335 9.01684641,16.8337487 8.70066939,16.8337487 L5.25699634,16.8337487 L5.25699634,15.8086916 L28.0092991,15.8086916 C28.3254761,15.8086916 28.581807,15.5476846 28.581807,15.225566 C28.581807,14.9034474 28.3254761,14.6424403 28.0092991,14.6424403 L5.25699634,14.6424403 L5.25699634,13.6173832 L33.7429273,13.6173832 L33.7429273,14.6424403 L30.2993306,14.6424403 C29.9831536,14.6424403 29.7268227,14.9034474 29.7268227,15.225566 C29.7268227,15.5476846 29.9831536,15.8086916 30.2993306,15.8086916 L33.7429273,15.8086916 L33.7429273,16.8337487 L10.9906246,16.8337487 C10.6744476,16.8337487 10.4181167,17.0948335 10.4181167,17.4168744 C10.4181167,17.738993 10.6744476,18 10.9906246,18 L36.2588323,18 C37.7703294,18 39,16.7475239 39,15.2079944 L39,2.79200556 C39,1.25255387 37.7702531,0 36.2588323,0 Z" id="Path"></path>
                            <path d="M34.3948522,6 C34.7290552,6 35,5.5524 35,5 C35,4.4476 34.7290552,4 34.3948522,4 L32.6051478,4 C32.2709448,4 32,4.4476 32,5 C32,5.5524 32.2709448,6 32.6051478,6 L34.3948522,6 Z" id="Path"></path>
                            <path d="M29.4265909,6 C29.7432656,6 30,5.5524 30,5 C30,4.4476 29.7432656,4 29.4265909,4 L18.5734091,4 C18.2567344,4 18,4.4476 18,5 C18,5.5524 18.2567344,6 18.5734091,6 L29.4265909,6 Z" id="Path"></path>
                            <path d="M10.425996,19 C10.109035,19 9.85206848,19.2876163 9.85206848,19.6425744 C9.85206848,19.6616803 9.83362628,21.5666135 8.24147488,22.8335989 C7.98313099,23.0391371 7.92252424,23.4403605 8.10618104,23.7296047 C8.21813517,23.9060128 8.39490483,24 8.57450588,24 C8.68952095,24 8.80568387,23.9613599 8.90654207,23.8810809 C10.9762011,22.2340342 11,19.7475282 11,19.6424887 C10.9999235,19.2876163 10.742957,19 10.425996,19 Z" id="Path"></path>
                            <path d="M14.5,19 C14.2238667,19 14,19.2876212 14,19.6425854 L14,23.3574146 C14,23.7123788 14.2238667,24 14.5,24 C14.7761333,24 15,23.7123788 15,23.3574146 L15,19.6425854 C15,19.2876212 14.7761333,19 14.5,19 Z" id="Path"></path>
                            <path d="M19.5,19 C19.2238667,19 19,19.2876212 19,19.6425854 L19,23.3574146 C19,23.7123788 19.2238667,24 19.5,24 C19.7761333,24 20,23.7123788 20,23.3574146 L20,19.6425854 C20,19.2876212 19.7761333,19 19.5,19 Z" id="Path"></path>
                            <path d="M30.758503,22.8335332 C29.1877473,21.5836189 29.1487194,19.7251542 29.1478776,19.6396504 C29.1465002,19.2860692 28.8900643,19 28.5739388,19 C28.2569715,19 28,19.2876114 28,19.6425634 C28,19.7476011 28.0237993,22.2340644 30.0934992,23.8810829 C30.1943594,23.9613605 30.3105246,24 30.425542,24 C30.60507,23.9999143 30.7819197,23.905843 30.8938761,23.7296093 C31.07746,23.4402844 31.016852,23.0390679 30.758503,22.8335332 Z" id="Path"></path>
                            <path d="M24.5,19 C24.2238667,19 24,19.2876212 24,19.6425854 L24,23.3574146 C24,23.7123788 24.2238667,24 24.5,24 C24.7761333,24 25,23.7123788 25,23.3574146 L25,19.6425854 C25,19.2876212 24.7761333,19 24.5,19 Z" id="Path"></path>
                        </g>
                    </g>
                </g>
            </g>
        </g>
    </g>
</svg>