<?xml version="1.0" encoding="UTF-8"?>
<svg width="37px" height="37px" viewBox="0 0 37 37" version="1.1" xmlns="http://www.w3.org/2000/svg" xmlns:xlink="http://www.w3.org/1999/xlink">
    <!-- Generator: Sketch 58 (84663) - https://sketch.com -->
    <title>005-armchair</title>
    <desc>Created with Sketch.</desc>
    <g id="Page-1" stroke="none" stroke-width="1" fill="none" fill-rule="evenodd">
        <g id="Property-details" transform="translate(-523.000000, -1163.000000)" fill="#000000" fill-rule="nonzero">
            <g id="Blocks/Recommended/features/icon" transform="translate(223.000000, 1086.000000)">
                <g id="icon-copy-5">
                    <g transform="translate(300.000000, 77.000000)">
                        <g id="005-armchair">
                            <path d="M25.3809524,24.5 L23.5238095,24.5 L23.5238095,17.625 C23.5238095,17.2798437 23.246631,17 22.9047619,17 L3.0952381,17 C2.75336905,17 2.47619048,17.2798437 2.47619048,17.625 L2.47619048,24.5 L0.619047619,24.5 C0.277178571,24.5 0,24.7798437 0,25.125 L0,35.125 C0,35.4701563 0.277178571,35.75 0.619047619,35.75 L2.47619048,35.75 L2.47619048,37 L3.71428571,37 L3.71428571,35.75 L22.2857143,35.75 L22.2857143,37 L23.5238095,37 L23.5238095,35.75 L25.3809524,35.75 C25.7228214,35.75 26,35.4701563 26,35.125 L26,25.125 C26,24.7798437 25.7228214,24.5 25.3809524,24.5 Z M6.19047619,34.5 L1.23809524,34.5 L1.23809524,25.75 L6.19047619,25.75 L6.19047619,34.5 Z M18.5714286,34.5 L7.42857143,34.5 L7.42857143,29.5 L18.5714286,29.5 L18.5714286,34.5 Z M18.5714286,25.125 L18.5714286,28.25 L7.42857143,28.25 L7.42857143,25.125 C7.42857143,24.7798437 7.15139286,24.5 6.80952381,24.5 L3.71428571,24.5 L3.71428571,18.25 L22.2857143,18.25 L22.2857143,24.5 L19.1904762,24.5 C18.8485298,24.5 18.5714286,24.7798437 18.5714286,25.125 Z M24.7619048,34.5 L19.8095238,34.5 L19.8095238,25.75 L24.7619048,25.75 L24.7619048,34.5 Z" id="Shape"></path>
                            <path d="M36.9955639,11.6488456 L35.7958513,0.548856018 C35.7623343,0.23736256 35.5068705,0.00125653162 35.2019935,1.1529291e-05 L26.804005,1.1529291e-05 C26.4968786,-0.00190388208 26.2379656,0.235050062 26.2041487,0.548856018 L25.0044361,11.6488456 C24.983741,11.8228996 25.0360785,11.9978786 25.1484016,12.1298451 C25.2646237,12.2622742 25.4308589,12.3364283 25.6042924,12.333345 L30.403143,12.333345 L30.403143,33.2999919 L28.0037177,33.2999919 C27.672447,33.2999919 27.4038613,33.5761042 27.4038613,33.916658 L27.4038613,36.3833224 C27.4038613,36.7238762 27.672447,36.9999885 28.0037177,36.9999885 L34.0022809,36.9999885 C34.3335515,36.9999885 34.6021372,36.7238762 34.6021372,36.3833224 L34.6021372,33.916658 C34.6021372,33.5761042 34.3335515,33.2999919 34.0022809,33.2999919 L31.6028556,33.2999919 L31.6028556,12.333345 L36.4017062,12.333345 C36.5730401,12.3346554 36.7368009,12.2606554 36.8515984,12.1298451 C36.9639215,11.9978786 37.016259,11.8229767 36.9955639,11.6488456 Z M33.4024246,34.5333241 L33.4024246,35.7666563 L28.603574,35.7666563 L28.603574,34.5333241 L33.4024246,34.5333241 Z M26.2761315,11.1000128 L27.3438757,1.23335538 L34.6621228,1.23335538 L35.7298671,11.1000128 L26.2761315,11.1000128 Z" id="Shape"></path>
                            <path d="M19.3928571,4.00290194 L15.3917857,4.00290194 L11.9310714,0.197155839 C11.6949687,-0.0641976093 11.3104955,-0.0659471861 11.0724196,0.193323433 C11.0712054,0.194573131 11.070067,0.195906142 11.0689286,0.197155839 L7.60821429,4.00290194 L3.60714286,4.00290194 C3.27184821,4.00290194 3,4.30132976 3,4.66940739 L3,15.3334946 C3,15.7015722 3.27184821,16 3.60714286,16 L19.3928571,16 C19.7281518,16 20,15.7015722 20,15.3334946 L20,4.66940739 C20,4.30132976 19.7281518,4.00290194 19.3928571,4.00290194 Z M11.5,1.61014739 L13.6796429,4.00290194 L9.32035714,4.00290194 L11.5,1.61014739 Z M18.7857143,14.6669891 L4.21428571,14.6669891 L4.21428571,5.33591284 L18.7857143,5.33591284 L18.7857143,14.6669891 Z" id="Shape"></path>
                            <path d="M7,6 L7,12 L19,12 L19,6 L7,6 Z M17.8,10.8 L8.2,10.8 L8.2,7.2 L17.8,7.2 L17.8,10.8 Z" id="Shape"></path>
                        </g>
                    </g>
                </g>
            </g>
        </g>
    </g>
</svg>