<?xml version="1.0" encoding="UTF-8"?>
<svg width="36px" height="37px" viewBox="0 0 36 37" version="1.1" xmlns="http://www.w3.org/2000/svg" xmlns:xlink="http://www.w3.org/1999/xlink">
    <!-- Generator: Sketch 58 (84663) - https://sketch.com -->
    <title>003-bathtub</title>
    <desc>Created with Sketch.</desc>
    <g id="Page-1" stroke="none" stroke-width="1" fill="none" fill-rule="evenodd">
        <g id="Property-details" transform="translate(-1124.000000, -1086.000000)" fill="#000000" fill-rule="nonzero">
            <g id="Blocks/Recommended/features/icon" transform="translate(223.000000, 1086.000000)">
                <g id="icon-copy-4">
                    <g transform="translate(901.000000, 0.000000)">
                        <g id="003-bathtub">
                            <path d="M34.1998902,17.2667304 L32.9999084,17.2667304 L32.9999084,16.6499334 C32.9988098,15.6286191 32.1937867,14.801236 31.2000732,14.8001069 L22.7999268,14.8001069 C21.8062133,14.801236 21.0011902,15.6286191 21.0000916,16.6499334 L21.0000916,17.2667304 L4.20007324,17.2667304 L4.20007324,4.93333094 C4.19869997,2.99797156 5.6497192,1.38893591 7.52755739,1.24355811 C9.40512087,1.09818031 11.0744934,2.4655784 11.3551941,4.37948389 C9.64544681,4.70072648 8.40289303,6.23043952 8.39987184,8.01675137 L8.39987184,8.63326609 C8.39987184,8.97398646 8.66876217,9.25006307 9,9.25006307 L14.9999084,9.25006307 C15.3314209,9.25006307 15.6000367,8.97398646 15.6000367,8.63326609 L15.6000367,8.01675137 C15.5970154,6.19967018 14.311615,4.65358454 12.5658875,4.36706334 C12.2744751,1.77002334 10.0621033,-0.141906266 7.52288822,0.00827039423 C4.98339844,0.158729324 2.99954222,2.31907145 3.00009157,4.93333094 L3.00009157,17.2667304 L1.80010983,17.2667304 C0.806396484,17.2678595 0.00109863281,18.0952426 0,19.1165568 C0.00109863281,19.8987739 0.482025164,20.5948935 1.19998167,20.8543153 L1.19998167,25.8999123 C1.20684811,30.4241253 4.609314,34.1765659 9,34.5020427 L9,35.1498913 C9,36.17177 9.8058472,37 10.8001098,37 C11.7940979,37 12.5999451,36.17177 12.5999451,35.1498913 L12.5999451,34.5333766 L23.4000549,34.5333766 L23.4000549,35.1498913 C23.4000549,36.17177 24.2059021,37 25.1998902,37 C26.1941528,37 27,36.17177 27,35.1498913 L27,34.5020427 C31.390686,34.1765659 34.7931519,30.4241253 34.8000183,25.8999123 L34.8000183,20.8529038 C35.5171508,20.5934821 35.9978027,19.8979271 36,19.1165568 C35.9953308,18.0969363 35.1922302,17.2715292 34.1998902,17.2667304 Z M14.4000549,8.01675137 L9.60012816,8.01675137 C9.60012816,6.65443449 10.674591,5.55012792 12.0000916,5.55012792 C13.325592,5.55012792 14.4000549,6.65443449 14.4000549,8.01675137 Z M30.5999451,17.2667304 L30.5999451,16.6499334 C30.5999451,16.3094953 30.8685608,16.0334187 31.2000732,16.0334187 C31.531311,16.0334187 31.7999268,16.3094953 31.7999268,16.6499334 L31.7999268,17.2667304 L30.5999451,17.2667304 Z M22.2000732,16.6499334 C22.2003479,16.3094953 22.468689,16.0337009 22.7999268,16.0334187 L29.5106506,16.0334187 C29.4395141,16.2307372 29.401886,16.4393473 29.3999633,16.6499334 L29.3999633,23.4332889 L23.9999084,23.4332889 C23.6686707,23.4332889 23.4000549,23.7093656 23.4000549,24.0500859 C23.4000549,24.390524 23.6686707,24.6666006 23.9999084,24.6666006 L29.3999633,24.6666006 L29.3999633,25.8999123 L22.2000732,25.8999123 L22.2000732,16.6499334 Z M11.3999633,35.1498913 C11.3999633,35.4906116 11.1313477,35.7666883 10.8001098,35.7666883 C10.4685974,35.7666883 10.1999817,35.4906116 10.1999817,35.1498913 L10.1999817,34.5333766 L11.3999633,34.5333766 L11.3999633,35.1498913 Z M25.8000183,35.1498913 C25.8000183,35.4906116 25.5314026,35.7666883 25.1998902,35.7666883 C24.8686523,35.7666883 24.6000367,35.4906116 24.6000367,35.1498913 L24.6000367,34.5333766 L25.8000183,34.5333766 L25.8000183,35.1498913 Z M26.3998718,33.3000648 L9.60012816,33.3000648 C5.62554928,33.295266 2.40463259,29.9848868 2.39996334,25.8999123 L2.39996334,20.9666654 L18,20.9666654 C18.3312378,20.9666654 18.6001282,20.6905888 18.6001282,20.3498685 C18.6001282,20.0094304 18.3312378,19.7333537 18,19.7333537 L1.80010983,19.7333537 C1.63833616,19.733636 1.48370358,19.6656049 1.37274173,19.5447861 C1.26095583,19.4321536 1.1986084,19.2774603 1.19995946,19.1165568 C1.20053102,18.7761187 1.46887207,18.5003243 1.80010983,18.500042 L21.0000916,18.500042 L21.0000916,25.8999123 C21.0014648,26.3385862 21.2299805,26.7431034 21.5999451,26.9618758 L21.5999451,28.3665357 C21.5999451,28.7072561 21.8685608,28.9833327 22.2000732,28.9833327 C22.531311,28.9833327 22.7999268,28.7072561 22.7999268,28.3665357 L22.7999268,27.133224 L23.9999084,27.133224 L23.9999084,28.3665357 C23.9999084,28.7072561 24.2685242,28.9833327 24.6000367,28.9833327 C24.9312744,28.9833327 25.1998902,28.7072561 25.1998902,28.3665357 L25.1998902,27.133224 L26.3998718,27.133224 L26.3998718,28.3665357 C26.3998718,28.7072561 26.6687622,28.9833327 27,28.9833327 C27.3312378,28.9833327 27.6001282,28.7072561 27.6001282,28.3665357 L27.6001282,27.133224 L28.8001098,27.133224 L28.8001098,28.3665357 C28.8001098,28.7072561 29.0687256,28.9833327 29.3999633,28.9833327 C29.7314758,28.9833327 30.0000916,28.7072561 30.0000916,28.3665357 L30.0000916,26.9615936 C30.3700562,26.7431034 30.5985718,26.3385862 30.5999451,25.8999123 L30.5999451,20.9666654 L33.6000367,20.9666654 L33.6000367,25.8999123 C33.5956421,29.9848868 30.3747254,33.295266 26.3998718,33.3000648 L26.3998718,33.3000648 Z M34.1998902,19.7333537 L30.5999451,19.7333537 L30.5999451,18.5000412 L34.1998902,18.5000412 C34.3619385,18.4997598 34.5165711,18.5680732 34.6278076,18.688892 C34.7393188,18.8015245 34.8013916,18.9559355 34.8000406,19.1165568 C34.7997437,19.4569949 34.5311279,19.7330715 34.1998902,19.7333537 L34.1998902,19.7333537 Z" id="Shape"></path>
                            <path d="M13,11.6665649 C13,11.2984893 12.5523003,11 12.0002289,11 C11.4476997,11 11,11.2984893 11,11.6665649 L11,12.3334351 C11,12.7015108 11.4476997,13 12.0002289,13 C12.5523003,13 13,12.7015108 13,12.3334351 L13,11.6665649 Z" id="Path"></path>
                            <path d="M12.0002289,13 C11.4476997,13 11,13.2987489 11,13.6667684 L11,14.3335368 C11,14.7015563 11.4476997,15 12.0002289,15 C12.5523003,15 13,14.7015563 13,14.3335368 L13,13.6667684 C13,13.2987489 12.5523003,13 12.0002289,13 Z" id="Path"></path>
                            <path d="M9.73019119,10.2210255 L9.21180717,10.7474804 C8.92532294,11.0381941 8.93006946,11.5046177 9.22231727,11.789598 C9.51456508,12.0742412 9.98344999,12.0695196 10.2699343,11.7788059 L10.7883182,11.2526882 C11.0748025,10.9619745 11.0697169,10.495551 10.7778081,10.2105706 C10.4855603,9.92559018 10.0163363,9.93064902 9.73019119,10.2210255 Z" id="Path"></path>
                            <path d="M7.73014536,12.2211414 L7.21179395,12.7475749 C6.9253276,13.0382769 6.93007383,13.5046816 7.22230339,13.7893132 C7.51453286,14.074282 7.98338837,14.0695607 8.26985464,13.7788587 L8.78820605,13.2524251 C9.0746724,12.9617231 9.06992617,12.4953185 8.77769661,12.2106869 C8.48546714,11.9257179 8.01627264,11.9304393 7.73014536,12.2211414 Z" id="Path"></path>
                            <path d="M13.2219523,10.2107861 C12.9300198,10.4957156 12.925612,10.9617186 13.2114414,11.2527176 L13.7298674,11.7787414 C13.9153344,11.966896 14.1872622,12.0424276 14.4435932,11.9766747 C14.6999242,11.9112588 14.9016662,11.7146744 14.9728692,11.461104 C15.0437333,11.2075336 14.9735474,10.9357546 14.7884194,10.7476 L14.2696544,10.2212392 C14.1323342,10.0816405 13.9444937,10.0020626 13.7481768,10.0000395 C13.5515207,9.99801624 13.362324,10.073885 13.2219523,10.2107861 Z" id="Path"></path>
                            <path d="M15.2115201,13.2524474 L15.7299233,13.7788904 C15.9153822,13.9667372 16.187298,14.0422806 16.4436178,13.9768546 C16.6999374,13.9110913 16.9016705,13.7148135 16.9728705,13.4612035 C17.0437313,13.2075935 16.9735485,12.935435 16.7884288,12.7475883 L16.2696865,12.2211453 C15.9835306,11.9304381 15.5146283,11.9257167 15.2223696,12.2106906 C14.930111,12.4953273 14.9253643,12.9620775 15.2115201,13.2524474 Z" id="Path"></path>
                            <path d="M11.3570167,30.7272462 L9.42865547,30.7272462 C6.5895239,30.7240418 4.28890923,28.4465437 4.28567223,25.6362312 C4.28567223,25.2849057 3.99787465,25 3.64298324,25 C3.2877975,25 3,25.2849057 3,25.6362312 C3.00411976,29.1491947 5.879741,31.9962129 9.42865547,32 L11.3570167,32 C11.7122024,32 12,31.7150942 12,31.3637688 C12,31.012152 11.7122024,30.7272462 11.3570167,30.7272462 L11.3570167,30.7272462 Z" id="Path"></path>
                            <path d="M4.00022887,24 C4.55230023,24 5,23.7012511 5,23.3332316 L5,22.6664632 C5,22.2984437 4.55230023,22 4.00022887,22 C3.44769965,22 3,22.2984437 3,22.6664632 L3,23.3332316 C3,23.7012511 3.44769965,24 4.00022887,24 L4.00022887,24 Z" id="Path"></path>
                        </g>
                    </g>
                </g>
            </g>
        </g>
    </g>
</svg>