<?xml version="1.0" encoding="UTF-8"?>
<svg width="36px" height="32px" viewBox="0 0 36 32" version="1.1" xmlns="http://www.w3.org/2000/svg" xmlns:xlink="http://www.w3.org/1999/xlink">
    <!-- Generator: Sketch 58 (84663) - https://sketch.com -->
    <title>001-bed</title>
    <desc>Created with Sketch.</desc>
    <g id="Page-1" stroke="none" stroke-width="1" fill="none" fill-rule="evenodd">
        <g id="Property-details" transform="translate(-824.000000, -1096.000000)" fill="#000000" fill-rule="nonzero">
            <g id="Blocks/Recommended/features/icon" transform="translate(223.000000, 1086.000000)">
                <g id="icon-copy-3">
                    <g transform="translate(601.000000, 7.000000)">
                        <g id="001-bed" transform="translate(0.000000, 3.000000)">
                            <path d="M35.4,18.4615385 L34.8,18.4615385 L34.8,16.6153846 C34.798425,15.3933846 34.092,14.2881538 33,13.7993846 L33,4.30769231 C32.99985,4.06307692 32.85855,3.84184615 32.64,3.744 C32.874075,3.35923077 32.998725,2.91507692 33,2.46153846 C33,1.10207692 31.925475,0 30.6,0 C29.274525,0 28.2,1.10207692 28.2,2.46153846 C28.202475,2.89492308 28.317675,3.31976923 28.5336,3.69230769 L7.4664,3.69230769 C7.682325,3.31976923 7.797525,2.89492308 7.8,2.46153846 C7.8,1.10207692 6.725475,0 5.4,0 C4.074525,0 3,1.10207692 3,2.46153846 C3.001275,2.91507692 3.125925,3.35923077 3.36,3.744 C3.14145,3.84184615 3.00015,4.06307692 3,4.30769231 L3,13.7993846 C1.908,14.2881538 1.201575,15.3933846 1.2,16.6153846 L1.2,18.4615385 L0.6,18.4615385 C0.26865,18.4615385 0,18.7370769 0,19.0769231 L0,27.6923077 C0,28.0321538 0.26865,28.3076923 0.6,28.3076923 L1.2,28.3076923 L1.2,31.3846154 C1.2,31.7244615 1.46865,32 1.8,32 L4.2,32 C4.53135,32 4.8,31.7244615 4.8,31.3846154 L4.8,28.3076923 L31.2,28.3076923 L31.2,31.3846154 C31.2,31.7244615 31.46865,32 31.8,32 L34.2,32 C34.53135,32 34.8,31.7244615 34.8,31.3846154 L34.8,28.3076923 L35.4,28.3076923 C35.73135,28.3076923 36,28.0321538 36,27.6923077 L36,19.0769231 C36,18.7370769 35.73135,18.4615385 35.4,18.4615385 Z M30.6,1.23076923 C31.262775,1.23076923 31.8,1.78176923 31.8,2.46153846 C31.8,3.14130769 31.262775,3.69230769 30.6,3.69230769 C29.937225,3.69230769 29.4,3.14130769 29.4,2.46153846 C29.4,1.78176923 29.937225,1.23076923 30.6,1.23076923 Z M5.4,1.23076923 C6.062775,1.23076923 6.6,1.78176923 6.6,2.46153846 C6.6,3.14130769 6.062775,3.69230769 5.4,3.69230769 C4.737225,3.69230769 4.2,3.14130769 4.2,2.46153846 C4.2,1.78176923 4.737225,1.23076923 5.4,1.23076923 Z M4.2,4.92307692 L31.8,4.92307692 L31.8,13.5384615 L29.3844,13.5384615 C29.78145,13.009 29.997825,12.3603077 30,11.6923077 L30,10.4615385 C29.99805,8.76307692 28.656,7.38661538 27,7.38461538 L22.2,7.38461538 C20.544,7.38661538 19.20195,8.76307692 19.2,10.4615385 L19.2,11.6923077 C19.202175,12.3603077 19.41855,13.009 19.8156,13.5384615 L16.1844,13.5384615 C16.58145,13.009 16.797825,12.3603077 16.8,11.6923077 L16.8,10.4615385 C16.79805,8.76307692 15.456,7.38661538 13.8,7.38461538 L9,7.38461538 C7.344,7.38661538 6.00195,8.76307692 6,10.4615385 L6,11.6923077 C6.002175,12.3603077 6.21855,13.009 6.6156,13.5384615 L4.2,13.5384615 L4.2,4.92307692 Z M28.8,10.4615385 L28.8,11.6923077 C28.8,12.7119231 27.994125,13.5384615 27,13.5384615 L22.2,13.5384615 C21.205875,13.5384615 20.4,12.7119231 20.4,11.6923077 L20.4,10.4615385 C20.4,9.44192308 21.205875,8.61538462 22.2,8.61538462 L27,8.61538462 C27.994125,8.61538462 28.8,9.44192308 28.8,10.4615385 Z M15.6,10.4615385 L15.6,11.6923077 C15.6,12.7119231 14.794125,13.5384615 13.8,13.5384615 L9,13.5384615 C8.005875,13.5384615 7.2,12.7119231 7.2,11.6923077 L7.2,10.4615385 C7.2,9.44192308 8.005875,8.61538462 9,8.61538462 L13.8,8.61538462 C14.794125,8.61538462 15.6,9.44192308 15.6,10.4615385 Z M2.4,16.6153846 C2.4,15.5957692 3.205875,14.7692308 4.2,14.7692308 L31.8,14.7692308 C32.794125,14.7692308 33.6,15.5957692 33.6,16.6153846 L33.6,18.4615385 L2.4,18.4615385 L2.4,16.6153846 Z M3.6,30.7692308 L2.4,30.7692308 L2.4,28.3076923 L3.6,28.3076923 L3.6,30.7692308 Z M33.6,30.7692308 L32.4,30.7692308 L32.4,28.3076923 L33.6,28.3076923 L33.6,30.7692308 Z M34.8,27.0769231 L1.2,27.0769231 L1.2,19.6923077 L34.8,19.6923077 L34.8,27.0769231 Z" id="Shape"></path>
                            <path d="M5.33333333,25 L2.66666667,25 C2.2985,25 2,25.223875 2,25.5 C2,25.776125 2.2985,26 2.66666667,26 L5.33333333,26 C5.7015,26 6,25.776125 6,25.5 C6,25.223875 5.7015,25 5.33333333,25 Z" id="Path"></path>
                            <path d="M32.4090909,25 L7.59090909,25 C7.26457955,25 7,25.223875 7,25.5 C7,25.776125 7.26457955,26 7.59090909,26 L32.4090909,26 C32.7354205,26 33,25.776125 33,25.5 C33,25.223875 32.7354205,25 32.4090909,25 Z" id="Path"></path>
                        </g>
                    </g>
                </g>
            </g>
        </g>
    </g>
</svg>