<?xml version="1.0" encoding="UTF-8"?>
<svg width="39px" height="39px" viewBox="0 0 39 39" version="1.1" xmlns="http://www.w3.org/2000/svg" xmlns:xlink="http://www.w3.org/1999/xlink">
    <!-- Generator: Sketch 58 (84663) - https://sketch.com -->
    <title>002-bisexual</title>
    <desc>Created with Sketch.</desc>
    <g id="Page-1" stroke="none" stroke-width="1" fill="none" fill-rule="evenodd">
        <g id="Property-details" transform="translate(-223.000000, -1093.000000)" fill="#000000" fill-rule="nonzero">
            <g id="Blocks/Recommended/features/icon" transform="translate(223.000000, 1086.000000)">
                <g id="icon">
                    <g transform="translate(0.000000, 7.000000)">
                        <g id="002-bisexual">
                            <path d="M26.5471836,0.00267789324 C24.0088347,0.00267789324 21.5823625,0.757844884 19.5019341,2.19022222 C17.4961891,0.809617523 15.0673365,0 12.4525189,0 C5.58639081,0 0,5.57924975 0,12.4370466 C0,18.5759768 4.47476599,23.767824 10.4914056,24.7190726 L10.4914056,27.044975 C10.4914056,27.3630496 10.7496739,27.6210204 11.0683436,27.6210204 C11.3870134,27.6210204 11.6452816,27.3630496 11.6452816,27.044975 L11.6452816,24.2168181 C11.6452816,23.9243323 11.4259916,23.6782633 11.135291,23.6446407 C5.44475981,22.9817125 1.15387612,18.1632831 1.15387612,12.436749 C1.15387612,6.21450646 6.2225401,1.15209082 12.4528164,1.15209082 C18.6830927,1.15209082 23.7517566,6.21450646 23.7517566,12.436749 C23.7517566,14.9007118 22.9361882,17.3033805 21.4448971,19.2606258 C21.4431119,19.2591381 21.4410291,19.2591381 21.4389462,19.2582454 C21.0081023,18.9357076 20.6087982,18.5730013 20.2463894,18.176375 C20.2457944,18.1751848 20.2460919,18.1736971 20.2451992,18.172507 C21.4681056,16.5169715 22.1366872,14.4987297 22.1366872,12.436749 C22.1366872,7.10386581 17.7925431,2.76507746 12.4528164,2.76507746 C8.04410522,2.76507746 4.18971869,5.74141128 3.07958165,10.0028381 C2.9992447,10.3107963 3.18431718,10.6253004 3.4925728,10.7053398 C3.80112611,10.7850816 4.11563022,10.6009018 4.19596717,10.2929436 C5.1736971,6.53912704 8.56897304,3.91746588 12.4528164,3.91746588 C13.9512485,3.91746588 15.360715,4.30576093 16.5857042,4.98654187 C14.9750978,7.13123987 14.0943672,9.75230597 14.0943672,12.4394269 C14.0943672,15.2199767 15.0125884,17.8062301 16.5758852,19.8923119 C15.3166785,20.5900529 13.903939,20.9563297 12.4528164,20.9563297 C7.74923898,20.9563297 3.92252411,17.1346731 3.92252411,12.4370466 C3.92252411,12.1186743 3.66425582,11.8610011 3.34558605,11.8610011 C3.02691628,11.8610011 2.76894551,12.1186743 2.76894551,12.4370466 C2.76894551,17.7699297 7.11308962,22.1087181 12.4525189,22.1087181 C14.1726214,22.1087181 15.8451168,21.6555583 17.3212333,20.7944657 C17.6946511,21.2056716 18.095443,21.5921815 18.5209311,21.9507221 C17.0861734,22.8656703 15.458607,23.4479641 13.7700442,23.6446407 C13.4793436,23.6785608 13.2603511,23.9246298 13.2603511,24.2168181 L13.2603511,31.5277746 C13.2603511,31.8461469 13.5183218,32.10382 13.8369916,32.10382 L15.8992699,32.10382 C16.3446934,32.10382 16.7071022,32.4656337 16.7071022,32.9104621 C16.7071022,33.3552906 16.3446934,33.7168067 15.8992699,33.7168067 L13.8369916,33.7168067 C13.5183218,33.7168067 13.2603511,33.9747774 13.2603511,34.2931497 L13.2603511,37.0409695 C13.2603511,37.485798 12.8979424,37.8476117 12.4525189,37.8476117 C12.0073929,37.8476117 11.6449841,37.485798 11.6449841,37.0409695 L11.6449841,34.2931497 C11.6449841,33.9747774 11.3867158,33.7168067 11.0683436,33.7168067 L9.00606533,33.7168067 C8.5606418,33.7168067 8.19853056,33.354993 8.19853056,32.9104621 C8.19853056,32.4656337 8.5606418,32.10382 9.00606533,32.10382 L11.0683436,32.10382 C11.3867158,32.10382 11.6449841,31.8458493 11.6449841,31.5277746 L11.6449841,29.3494542 C11.6449841,29.0313794 11.3867158,28.7734087 11.0683436,28.7734087 C10.7496739,28.7734087 10.4914056,29.0313794 10.4914056,29.3494542 L10.4914056,30.9517292 L9.00606533,30.9517292 C7.92449244,30.9517292 7.04465451,31.830377 7.04465451,32.9104621 C7.04465451,33.9905472 7.92449244,34.8691951 9.00606533,34.8691951 L10.4914056,34.8691951 L10.4914056,37.0409695 C10.4914056,38.1210547 11.3712435,39 12.4525189,39 C13.5340917,39 14.4136321,38.1210547 14.4136321,37.0409695 L14.4136321,34.8691951 L15.8992699,34.8691951 C16.9808428,34.8691951 17.8603831,33.9905472 17.8603831,32.9104621 C17.8603831,31.830377 16.9808428,30.9517292 15.8992699,30.9517292 L14.4136321,30.9517292 L14.4136321,24.718775 C16.2298414,24.4298597 17.9680941,23.7350942 19.4900323,22.6907143 C20.9789431,23.7142661 22.7070793,24.4248015 24.5857728,24.7217505 L24.5857728,26.2386304 L23.1001351,26.2386304 C22.0188597,26.2386304 21.1390218,27.1172782 21.1390218,28.1973633 C21.1390218,29.2774484 22.0188597,30.1560963 23.1001351,30.1560963 L24.5857728,30.1560963 L24.5857728,32.3710146 L23.8532192,31.6518505 C23.0909112,30.902932 21.8296217,30.913346 21.0798105,31.675059 C20.3299994,32.4367719 20.3410085,33.6965737 21.1033165,34.4448971 L25.1719348,38.4403195 C25.9214484,39.1764436 27.1723238,39.1764436 27.9218374,38.4403195 L31.9907533,34.4448971 C32.7527637,33.6965737 32.7637728,32.4367719 32.0139617,31.6753565 C31.2644481,30.9136436 30.0031586,30.902932 29.240553,31.6518505 L28.5082969,32.3710146 L28.5082969,30.1560963 L29.9936371,30.1560963 C31.07521,30.1560963 31.9547504,29.2774484 31.9547504,28.1973633 C31.9547504,27.1172782 31.07521,26.2386304 29.9936371,26.2386304 L28.5082969,26.2386304 L28.5082969,24.7214529 C30.2034057,24.4506878 31.847337,23.8222746 33.2916161,22.8897713 C34.8442013,21.8870477 36.1780916,20.5272711 37.1495732,18.9571308 C37.316793,18.6863656 37.2328855,18.3313955 36.9618228,18.1641757 C36.6907601,17.9969559 36.3354925,18.0808634 36.1679751,18.3516285 C35.2860544,19.7771624 34.0750498,21.0119704 32.6652858,21.9221579 C31.2242796,22.8528759 29.564281,23.4494518 27.864709,23.6473187 C27.5740084,23.6812387 27.3547184,23.9273077 27.3547184,24.2194961 L27.3547184,26.8146758 C27.3547184,27.133048 27.6129867,27.3907212 27.9316564,27.3907212 L29.9936371,27.3907212 C30.4390607,27.3907212 30.8011719,27.7525349 30.8011719,28.1973633 C30.8011719,28.6421918 30.4390607,29.0040055 29.9936371,29.0040055 L27.9316564,29.0040055 C27.6129867,29.0040055 27.3547184,29.2616786 27.3547184,29.5800509 L27.3547184,33.7453709 C27.3547184,34.2455426 27.9786684,34.5067863 28.3360189,34.1559818 L30.0495754,32.4733698 C30.363187,32.1654117 30.8835916,32.1692797 31.1915498,32.4828912 C31.4998054,32.7970978 31.4959374,33.3148246 31.1820284,33.6236754 L27.1134101,37.6188002 C26.8063446,37.9202124 26.2880228,37.9199149 25.9809572,37.6188002 L21.9123389,33.6236754 C21.5984299,33.3151221 21.5942643,32.7965027 21.903115,32.4828912 C22.2122634,32.1686846 22.7302877,32.1648165 23.0447918,32.4733698 L24.7583484,34.1559818 C25.1156989,34.5070838 25.7396489,34.2455426 25.7396489,33.7453709 L25.7396489,29.5800509 C25.7396489,29.2616786 25.4813806,29.0040055 25.1630084,29.0040055 L23.1007302,29.0040055 C22.6553066,29.0040055 22.2931954,28.6421918 22.2931954,28.1973633 C22.2931954,27.7525349 22.6553066,27.3907212 23.1007302,27.3907212 L25.1630084,27.3907212 C25.4813806,27.3907212 25.7396489,27.133048 25.7396489,26.8146758 L25.7396489,24.2194961 C25.7396489,23.9273077 25.5203589,23.6812387 25.2296583,23.6473187 C19.5394246,22.9843904 15.2482434,18.1662585 15.2482434,12.4397244 C15.2482434,9.97605915 16.0638118,7.57339039 17.5545078,5.61644275 C17.5565906,5.61793045 17.5589709,5.61852558 17.5616489,5.61852558 C17.9918977,5.9410634 18.3909043,6.30347209 18.7533131,6.69980086 C18.7536106,6.70128856 18.7536106,6.70366891 18.7545032,6.70456156 C17.5315969,8.36009703 16.8633128,10.3780413 16.8633128,12.4397244 C16.8633128,17.7729052 21.2077545,22.1113959 26.5471836,22.1113959 C31.8869104,22.1113959 36.2310545,17.7729052 36.2310545,12.4397244 C36.2310545,7.10684121 31.8869104,2.76805294 26.5471836,2.76805294 C24.8249983,2.76805294 23.1501225,3.22210522 21.6725184,4.08557829 C21.2982079,3.67407475 20.8965234,3.28816005 20.4710352,2.92961941 C22.2860543,1.76622188 24.371541,1.1547687 26.5471836,1.1547687 C32.7774599,1.1547687 37.846124,6.21718434 37.846124,12.4397244 C37.846124,13.7504062 37.6220732,15.0352018 37.1805178,16.2581081 C37.0722116,16.5574375 37.2275297,16.8877114 37.5274542,16.9954224 C37.8267835,17.1037285 38.1573551,16.9484104 38.2656611,16.6490811 C38.7527408,15.3003136 39,13.8840036 39,12.4397244 C39,5.58192763 33.4136092,0.00267789324 26.5471836,0.00267789324 L26.5471836,0.00267789324 Z M19.5013389,7.64390832 C20.4356275,9.01052851 20.9831086,10.6610057 20.9831086,12.4370466 C20.9831086,14.1479252 20.4600261,15.8245863 19.4986611,17.2325651 C18.564075,15.8662425 18.0168914,14.2154677 18.0168914,12.4397244 C18.0168914,10.7288457 18.5396764,9.05188716 19.5013389,7.64390832 Z M26.5471836,3.92014376 C31.250761,3.92014376 35.0774759,7.74180039 35.0774759,12.4394269 C35.0774759,17.1370534 31.250761,20.9590076 26.5471836,20.9590076 C25.0484539,20.9590076 23.6389875,20.570415 22.4137008,19.8896341 C24.0246046,17.7452336 24.9053352,15.1241675 24.9053352,12.436749 C24.9053352,9.64489256 23.9793779,7.06518503 22.4181639,4.98713692 C23.6788583,4.28761068 25.0936806,3.92014376 26.5471836,3.92014376 L26.5471836,3.92014376 Z" id="Shape"></path>
                        </g>
                    </g>
                </g>
            </g>
        </g>
    </g>
</svg>