<?xml version="1.0" encoding="UTF-8"?>
<svg width="36px" height="20px" viewBox="0 0 36 20" version="1.1" xmlns="http://www.w3.org/2000/svg" xmlns:xlink="http://www.w3.org/1999/xlink">
    <!-- Generator: Sketch 58 (84663) - https://sketch.com -->
    <title>008-couch</title>
    <desc>Created with Sketch.</desc>
    <g id="Page-1" stroke="none" stroke-width="1" fill="none" fill-rule="evenodd">
        <g id="Property-details" transform="translate(-224.000000, -1245.000000)" fill="#000000" fill-rule="nonzero">
            <g id="Blocks/Recommended/features/icon" transform="translate(223.000000, 1086.000000)">
                <g id="icon-copy-8">
                    <g transform="translate(1.000000, 147.000000)">
                        <g id="008-couch" transform="translate(0.000000, 12.000000)">
                            <path d="M34.2158203,5.47398432 L33.5006016,5.47398432 L33.5006016,2.83223624 C33.5006016,1.27052674 32.2221797,0 30.6507656,0 L20.3224922,0 C19.3650469,0 18.5170078,0.472167484 18,1.19394016 C17.4829922,0.472097606 16.6349531,0 15.6775078,0 L9.18892969,0 C8.89769531,0 8.66158594,0.234651238 8.66158594,0.52408704 C8.66158594,0.813522843 8.89769531,1.04817408 9.18892969,1.04817408 L15.6775078,1.04817408 C16.6673672,1.04817408 17.4726562,1.84848993 17.4726562,2.83223624 L17.4726562,8.07380543 C17.4616172,8.06325381 17.4499453,8.05340098 17.4387656,8.04298911 C16.8136875,7.46376812 15.9664922,7.12988973 15.1113516,7.12988973 L6.32735156,7.12988973 C6.280875,6.42621553 5.79817969,5.80730368 5.13210937,5.57265244 C4.94444531,5.50654759 4.74602344,5.47398432 4.54696875,5.47398432 L3.55408594,5.47398432 L3.55408594,2.83223624 C3.55408594,1.84848993 4.359375,1.04817408 5.34923437,1.04817408 L7.07955469,1.04817408 C7.37078906,1.04817408 7.60689844,0.813522843 7.60689844,0.52408704 C7.60689844,0.234651238 7.37078906,0 7.07955469,0 L5.34923437,0 C3.77782031,0 2.49939844,1.27052674 2.49939844,2.83223624 L2.49939844,5.47398432 L1.78417969,5.47398432 C0.800367187,5.47398432 0,6.26954845 0,7.24714547 L0,12.7193828 C0,14.7554959 1.66682812,16.4120302 3.71559375,16.4120302 L3.98060156,16.4120302 C3.98060156,16.4120302 3.40319531,17.9555015 3.40277344,17.9566894 C3.03848437,18.9303733 3.78829687,20 4.831875,20 L5.68026563,20 C6.15515625,20 6.60972656,19.7752715 6.89625,19.3988372 L9.16952344,16.4120302 L26.8306172,16.4120302 L29.1038906,19.3989071 C29.3904141,19.7752715 29.8449844,20 30.3198047,20 C30.3198047,20 31.1676328,20 31.168125,20 C32.2129688,20 32.9614453,18.9301637 32.5972266,17.9566894 L32.0193281,16.4120302 L32.2844063,16.4120302 C34.3331719,16.4120302 36,14.7554959 36,12.7193828 L36,7.24714547 C36,6.26954845 35.1996328,5.47398432 34.2158203,5.47398432 Z M18.5273438,2.832376 C18.5273438,1.84855981 19.3326328,1.04824396 20.3224922,1.04824396 L30.6507656,1.04824396 C31.640625,1.04824396 32.4459141,1.84855981 32.4459141,2.83230612 L32.4459141,5.4740542 C32.4459141,5.4740542 31.4533125,5.4740542 31.4529609,5.4740542 C30.7518047,5.4740542 30.0791953,5.92127514 29.8072266,6.56289743 C29.7310781,6.74255447 29.6854453,6.93555826 29.6726484,7.13002949 C29.6726484,7.13002949 20.8889297,7.13002949 20.8886484,7.13002949 C20.0202891,7.13002949 19.1548125,7.47725462 18.5273438,8.07394519 L18.5273438,2.832376 Z M6.33121875,8.17813369 L15.1113516,8.17813369 C16.4133984,8.17820357 17.4726563,9.23091974 17.4726563,10.5249256 L17.4726563,11.2701774 L6.33121875,11.2701774 L6.33121875,8.17813369 Z M6.05510156,18.7665087 C5.96678906,18.8825766 5.82658594,18.9518259 5.68019531,18.9518259 C5.68019531,18.9518259 4.83475781,18.9518259 4.83180469,18.9518259 C4.50892969,18.9518259 4.27879687,18.6226294 4.39129688,18.3220131 L5.1058125,16.4120302 L7.84701562,16.4120302 L6.05510156,18.7665087 Z M31.168125,18.951756 L30.3198047,18.951756 C30.1734141,18.951756 30.0332813,18.8825067 29.9449688,18.7665087 L28.1529844,16.4120302 L30.8941875,16.4120302 C30.8941875,16.4120302 31.6062422,18.3153047 31.6087031,18.3219432 C31.7214141,18.6232583 31.4896641,18.951756 31.168125,18.951756 Z M32.2844063,15.3638562 L3.71559375,15.3638562 C2.24838281,15.3638562 1.0546875,14.1775327 1.0546875,12.7193828 L1.0546875,7.24714547 C1.0546875,6.84737188 1.38192188,6.5221584 1.78417969,6.5221584 L4.54696875,6.5221584 C4.94922656,6.5221584 5.27646094,6.84737188 5.27646094,7.24714547 L5.27646094,11.7941945 C5.27646094,12.0836303 5.51257031,12.3182816 5.80380469,12.3182816 L25.1732813,12.3182816 C25.4645156,12.3182816 25.700625,12.0836303 25.700625,11.7941945 C25.700625,11.5047587 25.4645156,11.2701075 25.1732813,11.2701075 L18.5273438,11.2701075 L18.5273438,10.5248557 C18.5273438,9.23084986 19.5866016,8.17813369 20.8886484,8.17813369 L29.6687813,8.17813369 L29.6687813,11.2701774 L27.2826563,11.2701774 C26.9914219,11.2701774 26.7553125,11.5048286 26.7553125,11.7942644 C26.7553125,12.0837002 26.9914219,12.3183514 27.2826563,12.3183514 L30.196125,12.3183514 C30.4873594,12.3183514 30.7234688,12.0837002 30.7234688,11.7942644 L30.7234688,7.24721535 C30.7234688,6.84744176 31.0507031,6.5221584 31.4529609,6.5221584 L34.21575,6.5221584 C34.6180078,6.5221584 34.9453125,6.84744176 34.9453125,7.24721535 L34.9453125,12.7193828 L34.9453125,12.7193828 C34.9453125,14.1775327 33.7516172,15.3638562 32.2844063,15.3638562 Z" id="Shape"></path>
                        </g>
                    </g>
                </g>
            </g>
        </g>
    </g>
</svg>