<?xml version="1.0" encoding="UTF-8"?>
<svg width="36px" height="36px" viewBox="0 0 36 36" version="1.1" xmlns="http://www.w3.org/2000/svg" xmlns:xlink="http://www.w3.org/1999/xlink">
    <!-- Generator: Sketch 58 (84663) - https://sketch.com -->
    <title>004-kitchen</title>
    <desc>Created with Sketch.</desc>
    <g id="Page-1" stroke="none" stroke-width="1" fill="none" fill-rule="evenodd">
        <g id="Property-details" transform="translate(-224.000000, -1160.000000)" fill="#000000" fill-rule="nonzero">
            <g id="Blocks/Recommended/features/icon" transform="translate(223.000000, 1086.000000)">
                <g id="icon-copy">
                    <g transform="translate(1.000000, 74.000000)">
                        <g id="004-kitchen">
                            <path d="M35.4,7 L24.6,7 C24.2686523,7 24,7.27051797 24,7.60416667 L24,21.5 L10.8,21.5 L10.8,19.6875 C10.8,19.3538513 10.5313477,19.0833333 10.2,19.0833333 L8.4,19.0833333 L8.4,20.2916667 L9.6,20.2916667 L9.6,21.5 L7.2,21.5 L7.2,19.0833333 L6,19.0833333 L6,21.5 L3.6,21.5 L3.6,20.2916667 L4.8,20.2916667 L4.8,19.0833333 L3,19.0833333 C2.66865233,19.0833333 2.4,19.3538513 2.4,19.6875 L2.4,21.5 L0.6,21.5 C0.268652325,21.5 0,21.770518 0,22.1041667 L0,35.3958333 C0,35.729482 0.268652325,36 0.6,36 L35.4,36 C35.7313477,36 36,35.729482 36,35.3958333 L36,7.60416667 C36,7.27051797 35.7313477,7 35.4,7 Z M25.2,8.20833333 L34.8,8.20833333 L34.8,15.4583333 L25.2,15.4583333 L25.2,8.20833333 Z M24,25.125 L13.2,25.125 L13.2,22.7083333 L24,22.7083333 L24,25.125 Z M1.2,22.7083333 L12,22.7083333 L12,25.125 L1.2,25.125 L1.2,22.7083333 Z M1.2,26.3333333 L12,26.3333333 L12,34.7916667 L1.2,34.7916667 L1.2,26.3333333 Z M13.2,26.3333333 L18,26.3333333 L18,34.7916667 L13.2,34.7916667 L13.2,26.3333333 Z M19.2,26.3333333 L24,26.3333333 L24,34.7916667 L19.2,34.7916667 L19.2,26.3333333 Z M25.2,34.7916667 L25.2,16.6666667 L34.8,16.6666667 L34.8,34.7916667 L25.2,34.7916667 Z" id="Shape"></path>
                            <polygon id="Path" points="27 11 28 11 28 13 27 13"></polygon>
                            <polygon id="Path" points="27 19 28 19 28 21 27 21"></polygon>
                            <path d="M3,24.5 C3,24.7761231 2.77612306,25 2.5,25 C2.22387694,25 2,24.7761231 2,24.5 C2,24.2238769 2.22387694,24 2.5,24 C2.77612306,24 3,24.2238769 3,24.5 Z" id="Path"></path>
                            <path d="M6,24.5 C6,24.7761231 5.77612306,25 5.5,25 C5.22387694,25 5,24.7761231 5,24.5 C5,24.2238769 5.22387694,24 5.5,24 C5.77612306,24 6,24.2238769 6,24.5 Z" id="Path"></path>
                            <path d="M8,24.5 C8,24.7761231 7.77612306,25 7.5,25 C7.22387694,25 7,24.7761231 7,24.5 C7,24.2238769 7.22387694,24 7.5,24 C7.77612306,24 8,24.2238769 8,24.5 Z" id="Path"></path>
                            <path d="M11,24.5 C11,24.7761231 10.7761231,25 10.5,25 C10.2238769,25 10,24.7761231 10,24.5 C10,24.2238769 10.2238769,24 10.5,24 C10.7761231,24 11,24.2238769 11,24.5 Z" id="Path"></path>
                            <path d="M0.636363636,11 L13.3636364,11 C13.7150657,11 14,10.7407741 14,10.4210526 L14,8.68421053 C14,8.5307103 13.9328835,8.38342928 13.8135653,8.27487664 L11.2681108,5.95908717 C11.1487926,5.85053454 10.9869052,5.78947368 10.8181818,5.78947368 L10.1818182,5.78947368 L10.1818182,0.578947368 C10.1818182,0.259225928 9.8968839,0 9.54545455,0 L4.45454545,0 C4.1031161,0 3.81818182,0.259225928 3.81818182,0.578947368 L3.81818182,5.78947368 L3.18181818,5.78947368 C3.0130948,5.78947368 2.85120739,5.85053454 2.7318892,5.95908717 L0.186434659,8.27487664 C0.0671164773,8.38342928 0,8.5307103 0,8.68421053 L0,10.4210526 C0,10.7407741 0.284934284,11 0.636363636,11 Z M5.09090909,1.15789474 L8.90909091,1.15789474 L8.90909091,5.78947368 L5.09090909,5.78947368 L5.09090909,1.15789474 Z M1.27272727,8.92393092 L3.4453125,6.94736842 L10.5546875,6.94736842 L12.7272727,8.92393092 L12.7272727,9.84210526 L1.27272727,9.84210526 L1.27272727,8.92393092 Z" id="Shape"></path>
                            <path d="M10.3571429,28 L2.64285714,28 C2.28784178,28 2,28.2686523 2,28.6 L2,33.4 C2,33.7313477 2.28784178,34 2.64285714,34 L10.3571429,34 C10.7121582,34 11,33.7313477 11,33.4 L11,28.6 C11,28.2686523 10.7121582,28 10.3571429,28 Z M9.71428571,32.8 L3.28571429,32.8 L3.28571429,29.2 L9.71428571,29.2 L9.71428571,32.8 Z" id="Shape"></path>
                            <polygon id="Path" points="18 24 20 24 20 25 18 25"></polygon>
                            <polygon id="Path" points="16 29 17 29 17 31 16 31"></polygon>
                            <polygon id="Path" points="20 29 21 29 21 31 20 31"></polygon>
                            <path d="M13.625,15 L17.375,15 C17.7201538,15 18,14.7313477 18,14.4 L18,13.8 C17.9957275,12.7089844 17.2254639,11.7580078 16.125,11.4852539 L16.125,0 L14.875,0 L14.875,11.4852539 C13.7745361,11.7580078 13.0042725,12.7089844 13,13.8 L13,14.4 C13,14.7313477 13.2798462,15 13.625,15 Z M15.5,12.6 C16.1903077,12.6 16.75,13.1373046 16.75,13.8 L14.25,13.8 C14.25,13.1373046 14.8096923,12.6 15.5,12.6 Z" id="Shape"></path>
                            <path d="M18.625,10 L22.375,10 C22.7201538,10 23,9.73661537 23,9.41176471 L23,8.82352941 C22.9957275,7.75390625 22.2254639,6.82157632 21.125,6.55417051 L21.125,0 L19.875,0 L19.875,6.55417051 C18.7745361,6.82157632 18.0042725,7.75390625 18,8.82352941 L18,9.41176471 C18,9.73661537 18.2798462,10 18.625,10 Z M20.5,7.64705882 C21.1903077,7.64705882 21.75,8.17382809 21.75,8.82352941 L19.25,8.82352941 C19.25,8.17382809 19.8096923,7.64705882 20.5,7.64705882 Z" id="Shape"></path>
                        </g>
                    </g>
                </g>
            </g>
        </g>
    </g>
</svg>