<?xml version="1.0" encoding="UTF-8"?>
<svg width="36px" height="36px" viewBox="0 0 36 36" version="1.1" xmlns="http://www.w3.org/2000/svg" xmlns:xlink="http://www.w3.org/1999/xlink">
    <!-- Generator: Sketch 58 (84663) - https://sketch.com -->
    <title>knowledge</title>
    <desc>Created with Sketch.</desc>
    <g id="Page-1" stroke="none" stroke-width="1" fill="none" fill-rule="evenodd">
        <g id="Property-details" transform="translate(-524.000000, -1092.000000)" fill="#000000" fill-rule="nonzero">
            <g id="Blocks/Recommended/features/icon" transform="translate(223.000000, 1086.000000)">
                <g id="icon-copy-2">
                    <g transform="translate(301.000000, 6.000000)">
                        <g id="knowledge">
                            <path d="M35.6196774,22.6811613 L27.8709677,19.8394839 L27.8709677,0.580645161 C27.8709677,0.260129032 27.6114194,0 27.2903226,0 L20.3225806,0 C20.0014839,0 19.7419355,0.260129032 19.7419355,0.580645161 L19.7419355,16.8590323 L18.2003226,16.2934839 C18.0708387,16.2464516 17.9291613,16.2464516 17.8002581,16.2934839 L16.2580645,16.8590323 L16.2580645,6.38709677 C16.2580645,6.29709677 16.2371613,6.20767742 16.1970968,6.12754839 L13.293871,0.321096774 C13.0964516,-0.0725806452 12.4525161,-0.0725806452 12.2550968,0.321096774 L9.35187097,6.12754839 C9.31122581,6.20767742 9.29032258,6.29709677 9.29032258,6.38709677 L9.29032258,19.413871 L0.380322581,22.6811613 C0.152129032,22.7641935 0,22.9819355 0,23.2258065 C0,23.4696774 0.152129032,23.6874194 0.380322581,23.7704516 L5.80645161,25.7603226 L5.80645161,31.9354839 C5.80645161,32.1915484 5.97483871,32.418 6.22045161,32.4917419 L17.8333548,35.9756129 C17.8879355,35.991871 17.9436774,36 18,36 C18.0563226,36 18.1120645,35.991871 18.1666452,35.9756129 L29.7795484,32.4917419 C30.0251613,32.418 30.1935484,32.1915484 30.1935484,31.9354839 L30.1935484,25.7603226 L32.516129,24.9085161 L32.516129,30.1935484 C31.5557419,30.1935484 30.7741935,30.9750968 30.7741935,31.9354839 L30.7741935,34.2580645 C30.7741935,35.2184516 31.5557419,36 32.516129,36 L33.6774194,36 C34.6378065,36 35.4193548,35.2184516 35.4193548,34.2580645 L35.4193548,31.9354839 C35.4193548,30.9750968 34.6378065,30.1935484 33.6774194,30.1935484 L33.6774194,24.4829032 L35.6196774,23.7710323 C35.847871,23.6874194 36,23.4696774 36,23.2258065 C36,22.9819355 35.847871,22.7641935 35.6196774,22.6811613 L35.6196774,22.6811613 Z M34.2580645,31.9354839 L34.2580645,34.2580645 C34.2580645,34.5785806 33.9979355,34.8387097 33.6774194,34.8387097 L32.516129,34.8387097 C32.1956129,34.8387097 31.9354839,34.5785806 31.9354839,34.2580645 L31.9354839,31.9354839 C31.9354839,31.6149677 32.1956129,31.3548387 32.516129,31.3548387 L33.6774194,31.3548387 C33.9979355,31.3548387 34.2580645,31.6149677 34.2580645,31.9354839 Z M20.9032258,15.0967742 L24.3870968,15.0967742 L24.3870968,13.9354839 L20.9032258,13.9354839 L20.9032258,12.7741935 L23.2258065,12.7741935 L23.2258065,11.6129032 L20.9032258,11.6129032 L20.9032258,10.4516129 L24.3870968,10.4516129 L24.3870968,9.29032258 L20.9032258,9.29032258 L20.9032258,8.12903226 L23.2258065,8.12903226 L23.2258065,6.96774194 L20.9032258,6.96774194 L20.9032258,5.80645161 L24.3870968,5.80645161 L24.3870968,4.64516129 L20.9032258,4.64516129 L20.9032258,3.48387097 L23.2258065,3.48387097 L23.2258065,2.32258065 L20.9032258,2.32258065 L20.9032258,1.16129032 L26.7096774,1.16129032 L26.7096774,19.413871 L20.9032258,17.2846452 L20.9032258,15.0967742 Z M14.516129,17.4977419 L14.516129,8.36941935 L15.0967742,7.78877419 L15.0967742,17.2846452 L14.516129,17.4977419 Z M14.9707742,6.27270968 L13.9354839,7.308 L13.1847097,6.55722581 C12.9576774,6.33019355 12.5907097,6.33019355 12.3636774,6.55722581 L11.6129032,7.308 L10.5776129,6.27270968 L11.3910968,4.64516129 L14.1572903,4.64516129 L14.9707742,6.27270968 Z M12.1935484,8.36941935 L12.7741935,7.78877419 L13.3548387,8.36941935 L13.3548387,17.9233548 L12.1935484,18.3489677 L12.1935484,8.36941935 Z M12.7741935,1.87896774 L13.5766452,3.48387097 L11.9717419,3.48387097 L12.7741935,1.87896774 Z M10.4516129,7.78877419 L11.0322581,8.36941935 L11.0322581,18.7751613 L10.4516129,18.9882581 L10.4516129,7.78877419 Z M29.0322581,31.5034839 L18,34.8131613 L6.96774194,31.5034839 L6.96774194,26.1859355 L17.7996774,30.1575484 C17.8647097,30.1813548 17.9326452,30.1935484 18,30.1935484 C18.0673548,30.1935484 18.1352903,30.1813548 18.2003226,30.1575484 L29.0322581,26.1859355 L29.0322581,31.5034839 Z M18,28.9945161 L2.26741935,23.2258065 L18,17.4570968 L33.7325806,23.2258065 L18,28.9945161 Z" id="Shape"></path>
                            <path d="M15,23.5 C15,24.355 16.2894,25 18,25 C19.7106,25 21,24.355 21,23.5 C21,22.645 19.7106,22 18,22 C16.2894,22 15,22.645 15,23.5 Z M19.8,23.5 C19.8,23.6245 19.1616,24 18,24 C16.8384,24 16.2,23.6245 16.2,23.5 C16.2,23.3755 16.8384,23 18,23 C19.1616,23 19.8,23.3755 19.8,23.5 Z" id="Shape"></path>
                        </g>
                    </g>
                </g>
            </g>
        </g>
    </g>
</svg>