<?xml version="1.0" encoding="UTF-8"?>
<svg width="38px" height="24px" viewBox="0 0 38 24" version="1.1" xmlns="http://www.w3.org/2000/svg" xmlns:xlink="http://www.w3.org/1999/xlink">
    <!-- Generator: Sketch 58 (84663) - https://sketch.com -->
    <title>measuring-tape</title>
    <desc>Created with Sketch.</desc>
    <g id="Page-1" stroke="none" stroke-width="1" fill="none" fill-rule="evenodd">
        <g id="Property-details" transform="translate(-1127.000000, -1240.000000)" fill="#000000" fill-rule="nonzero">
            <g id="Blocks/Recommended/features/icon" transform="translate(223.000000, 1086.000000)">
                <g id="icon-copy-11">
                    <g transform="translate(904.000000, 147.000000)">
                        <g id="measuring-tape" transform="translate(0.000000, 7.000000)">
                            <path d="M37.4433594,15.4173038 L23.2120625,15.4173038 L23.2120625,8.47477787 C23.2120625,7.80976361 23.1261914,7.4933803 22.6182383,6.93097886 L22.2395742,6.5114626 L23.6820156,5.20372508 C24.0695859,4.85100746 24.0989023,4.24840795 23.7479961,3.86106501 L20.8567305,0.657702503 C20.4978828,0.261294565 20.0049961,0.0285024249 19.4688398,0.00242197762 C18.9329805,-0.0235098631 18.4216875,0.159499087 18.0278828,0.517566538 L17.3684492,1.11489051 L17.0559141,0.768637282 C16.8098789,0.49237773 16.4482109,0.175325683 15.8304141,0.175325683 L11.6058828,0.175325683 C5.20644531,0.175325683 0,5.3929012 0,11.8061649 C0,18.2194286 5.20644531,23.4370041 11.6060313,23.4370041 L14.3347578,23.4370041 C14.6421719,23.4370041 14.8913984,23.1874938 14.8913984,22.8797296 C14.8913984,22.5719655 14.6421719,22.3224551 14.3347578,22.3224551 L11.6060313,22.3224551 C5.82030859,22.3224551 1.11328125,17.6048663 1.11328125,11.8061649 C1.11328125,6.00738923 5.82030859,1.28980041 11.6060313,1.28980041 L15.8305625,1.28980041 C15.9702422,1.28980041 16.0559648,1.32048766 16.2275586,1.51308173 L16.9062891,2.26503081 C16.9095547,2.26882027 16.912375,2.27290695 16.9157891,2.27662212 C16.9190547,2.28026298 16.9227656,2.28338371 16.9261055,2.28695027 L21.792332,7.67832113 C22.0987813,8.01758985 22.0987813,8.06083436 22.0987813,8.47470356 L22.0987813,22.3223808 L16.9034688,22.3223808 C16.5960547,22.3223808 16.3468281,22.5718912 16.3468281,22.8796553 C16.3468281,23.1874195 16.5960547,23.4369298 16.9034688,23.4369298 L22.2030586,23.4369298 C22.7594023,23.4369298 23.2119883,22.9836056 23.2119883,22.4263311 L23.2119883,21.4444134 L36.8867188,21.4444134 L36.8867188,23.4427255 C36.8867188,23.7504896 37.1359453,24 37.4433594,24 C37.7507734,24 38,23.7504896 38,23.4427255 L38,15.9745783 C38,15.6668141 37.7507734,15.4173038 37.4433594,15.4173038 L37.4433594,15.4173038 Z M18.7757109,1.34329876 C18.9499766,1.18488419 19.1770859,1.10419084 19.4148086,1.11570785 C19.6537187,1.12737346 19.8728125,1.2305064 20.0313438,1.4055649 L22.8132109,4.48773878 L21.4932305,5.68454153 L18.1150156,1.94181159 L18.7757109,1.34329876 Z M23.2120625,16.5318528 L24.9894531,16.5318528 L24.9894531,17.1679631 C24.9894531,17.4757272 25.2386797,17.7252376 25.5460938,17.7252376 C25.8535078,17.7252376 26.1027344,17.4757272 26.1027344,17.1679631 L26.1027344,16.5318528 L27.880125,16.5318528 L27.880125,17.9122589 C27.880125,18.220023 28.1293516,18.4695334 28.4367656,18.4695334 C28.7441797,18.4695334 28.9934063,18.220023 28.9934063,17.9122589 L28.9934063,16.5318528 L30.7707969,16.5318528 L30.7707969,17.1679631 C30.7707969,17.4757272 31.0200234,17.7252376 31.3274375,17.7252376 C31.6348516,17.7252376 31.8840781,17.4757272 31.8840781,17.1679631 L31.8840781,16.5318528 L33.6614688,16.5318528 L33.6614688,20.330013 L23.2120625,20.330013 L23.2120625,16.5318528 Z M34.7748242,20.330013 L34.7748242,16.5318528 L36.8867188,16.5318528 L36.8867188,20.330013 L34.7748242,20.330013 Z" id="Shape"></path>
                            <path d="M6.32842566,6.5069538 C4.82689504,8.10973623 4,10.2385271 4,12.5010831 C4,17.1873475 7.58928571,21 12.0010204,21 C16.4116618,21 20,17.1874249 20,12.5010831 C20,7.81358084 16.4116618,4 12.0010204,4 C10.7495627,4 9.55094752,4.29901791 8.43862974,4.88877562 C8.16851312,5.03197928 8.05896501,5.38043379 8.19387755,5.66715058 C8.3287172,5.95379 8.65699708,6.07014781 8.92718659,5.92694415 C9.88644315,5.41834292 10.9206268,5.16048349 12.0010204,5.16048349 C15.8088192,5.16048349 18.9067055,8.45347144 18.9067055,12.5010831 C18.9067055,16.5474569 15.8088192,19.8395165 12.0010204,19.8395165 C8.19205539,19.8395165 5.09329446,16.5475343 5.09329446,12.5010831 C5.09329446,10.5472931 5.80721574,8.70908727 7.1037172,7.32524939 C7.31654519,7.09794936 7.31559767,6.73061765 7.10153061,6.50463283 C6.88753644,6.27872538 6.54139942,6.2798085 6.32842566,6.5069538 Z" id="Path"></path>
                            <path d="M11,18 C14.3084724,18 17,15.3084211 17,12.0000376 C17,8.69157894 14.3083971,6 11,6 C7.69160286,6 5,8.69157894 5,12.0000376 C5,15.3084211 7.69152755,18 11,18 L11,18 Z M11,7.12865141 C13.6855027,7.12865141 15.8703402,9.31395108 15.8703402,12.0001129 C15.8703402,14.6862746 13.6855027,16.8714991 11,16.8714991 C8.3144973,16.8714991 6.12965985,14.6861994 6.12965985,12.0001129 C6.12965985,9.31402632 8.3144973,7.12865141 11,7.12865141 L11,7.12865141 Z" id="Shape"></path>
                            <path d="M9.14717722,15 L12.8552298,15 C13.4864637,15 14,14.4553134 14,13.7857607 L14,11.2142393 C14,10.5446866 13.4863807,10 12.8552298,10 L9.14717722,10 C8.51461535,10 8,10.5446866 8,11.2142393 L8,13.7857607 C8,14.4553134 8.51461535,15 9.14717722,15 Z M9.24503714,11.3172407 L12.7550459,11.3172407 L12.7550459,13.6828472 L9.24503714,13.6828472 L9.24503714,11.3172407 Z" id="Shape"></path>
                        </g>
                    </g>
                </g>
            </g>
        </g>
    </g>
</svg>