<?xml version="1.0" encoding="UTF-8"?>
<svg width="40px" height="40px" viewBox="0 0 40 40" version="1.1" xmlns="http://www.w3.org/2000/svg" xmlns:xlink="http://www.w3.org/1999/xlink">
    <!-- Generator: Sketch 58 (84663) - https://sketch.com -->
    <title>009-parking</title>
    <desc>Created with Sketch.</desc>
    <g id="Page-1" stroke="none" stroke-width="1" fill="none" fill-rule="evenodd">
        <g id="Property-details" transform="translate(-520.000000, -1229.000000)" fill="#000000" fill-rule="nonzero">
            <g id="Blocks/Recommended/features/icon" transform="translate(223.000000, 1086.000000)">
                <g id="icon-copy-9">
                    <g transform="translate(297.000000, 143.000000)">
                        <g id="009-parking">
                            <path d="M9.70588235,22 L2.58823529,22 C1.15945762,21.9983953 0.00160466853,20.8405424 0,19.4117647 L0,2.58823529 C0.00160466853,1.15945762 1.15945762,0.00160466853 2.58823529,0 L19.4117647,0 C20.8405424,0.00160466853 21.9983953,1.15945762 22,2.58823529 L22,13.5882353 L20.7058824,13.5882353 L20.7058824,2.58823529 C20.7050355,1.87386491 20.1261351,1.29496445 19.4117647,1.29411765 L2.58823529,1.29411765 C1.87386491,1.29496445 1.29496445,1.87386491 1.29411765,2.58823529 L1.29411765,19.4117647 C1.29496445,20.1261351 1.87386491,20.7050355 2.58823529,20.7058824 L9.70588235,20.7058824 L9.70588235,22 Z" id="Path"></path>
                            <path d="M8.45454545,20 L4.63636364,20 C4.2849097,20 4,19.6900433 4,19.3076923 L4,2.69230769 C4,2.30995671 4.2849097,2 4.63636364,2 L12.2727273,2 C15.4358127,2 18,4.7896104 18,8.23076923 C18,11.6719281 15.4358127,14.4615385 12.2727273,14.4615385 L9.09090909,14.4615385 L9.09090909,19.3076923 C9.09090909,19.6900433 8.80599939,20 8.45454545,20 Z M5.27272727,18.6153846 L7.81818182,18.6153846 L7.81818182,13.7692308 C7.81818182,13.3868798 8.10309152,13.0769231 8.45454545,13.0769231 L12.2727273,13.0769231 C14.7329048,13.0769231 16.7272727,10.9072261 16.7272727,8.23076923 C16.7272727,5.55431237 14.7329048,3.38461538 12.2727273,3.38461538 L5.27272727,3.38461538 L5.27272727,18.6153846 Z M12.2727273,10.3076923 L8.45454545,10.3076923 C8.10309152,10.3076923 7.81818182,9.9977356 7.81818182,9.61538462 L7.81818182,6.84615385 C7.81818182,6.46380287 8.10309152,6.15384615 8.45454545,6.15384615 L12.2727273,6.15384615 C13.3270891,6.15384615 14.1818182,7.08371629 14.1818182,8.23076923 C14.1818182,9.37782217 13.3270891,10.3076923 12.2727273,10.3076923 Z M9.09090909,8.92307692 L12.2727273,8.92307692 C12.6241812,8.92307692 12.9090909,8.61312021 12.9090909,8.23076923 C12.9090909,7.84841825 12.6241812,7.53846154 12.2727273,7.53846154 L9.09090909,7.53846154 L9.09090909,8.92307692 Z" id="Shape"></path>
                            <path d="M39.1380519,26.5683516 C38.6094875,26.0514779 37.8969915,25.751999 37.1478873,25.7318382 L34.4215567,17.7739746 C34.0592931,16.7139663 33.0397451,15.9990605 31.8916426,16.0000009 L16.1083252,16.0000009 C14.9602226,15.9990605 13.9406746,16.7139663 13.578411,17.7739746 L10.8520805,25.7318382 C9.26295328,25.7789462 8,27.0460493 8,28.5929459 L8,33.5135127 C8.00165329,34.9458006 9.19459149,36.1064982 10.666664,36.1081069 L15.3333259,36.1081069 L15.3333259,38.702701 L11.33333,38.702701 L11.33333,37.405404 L10,37.405404 L10,38.702701 C10.0008704,39.4188265 10.5973127,39.9991493 11.33333,40.0000009 L15.3333259,40.0000009 C16.0693432,39.9991493 16.6657855,39.4188265 16.6666579,38.702701 L16.6666579,36.1081069 L31.3333098,36.1081069 L31.3333098,38.702701 C31.3341823,39.4188265 31.9306245,39.9991493 32.6666418,40.0000009 L36.6666377,40.0000009 C37.402655,39.9991493 37.9990973,39.4188265 37.9999697,38.702701 L37.9999697,36.0259717 C39.176472,35.7287284 39.9984133,34.6961804 39.9999786,33.5135127 L39.9999786,28.5929459 C40.002096,27.8331639 39.6917302,27.1041311 39.1380519,26.5683516 L39.1380519,26.5683516 Z M16.1083252,17.2972986 L31.8916426,17.2972986 C32.4657438,17.2968816 32.9755449,17.6543672 33.1567246,18.1844069 L33.2972245,18.594596 L14.7027432,18.594596 L14.8432431,18.1844069 C15.0244228,17.6543672 15.5342239,17.2968816 16.1083252,17.2972986 L16.1083252,17.2972986 Z M14.258329,19.8918931 L33.7416407,19.8918931 L35.7416387,25.7297301 L12.258329,25.7297301 L14.258329,19.8918931 Z M36.6666418,38.702701 L32.6666418,38.702701 L32.6666418,36.1081069 L36.6666418,36.1081069 L36.6673044,38.702701 L36.6666418,38.702701 Z M38.6666357,33.5135127 C38.6657633,34.2296381 38.069321,34.8099609 37.3333037,34.8108098 L10.666664,34.8108098 C9.93064674,34.8099609 9.33420446,34.2296381 9.33333199,33.5135127 L9.33333199,28.5929459 C9.33333199,27.7281314 10.0539107,27.0270272 10.942747,27.0270272 L37.0572207,27.0270272 C37.946057,27.0270272 38.6666357,27.7281314 38.6666357,28.5929459 L38.6666357,33.5135127 Z" id="Shape"></path>
                            <path d="M14,28 C12.3431458,28 11,29.3431458 11,31 C11,32.6568542 12.3431458,34 14,34 C15.6568542,34 17,32.6568542 17,31 C16.99814,29.3439168 15.6560832,28.00186 14,28 Z M14,32.5 C13.1715729,32.5 12.5,31.8284271 12.5,31 C12.5,30.1715729 13.1715729,29.5 14,29.5 C14.8284271,29.5 15.5,30.1715729 15.5,31 C15.4990185,31.8280202 14.8280202,32.4990185 14,32.5 Z" id="Shape"></path>
                            <path d="M35,28 C33.3431458,28 32,29.3431458 32,31 C32,32.6568542 33.3431458,34 35,34 C36.6568542,34 38,32.6568542 38,31 C37.99814,29.3439168 36.6560832,28.00186 35,28 L35,28 Z M35,32.5 C34.1715729,32.5 33.5,31.8284271 33.5,31 C33.5,30.1715729 34.1715729,29.5 35,29.5 C35.8284271,29.5 36.5,30.1715729 36.5,31 C36.4990185,31.8280202 35.8280202,32.4990185 35,32.5 L35,32.5 Z" id="Shape"></path>
                            <polygon id="Path" points="18 29 31 29 31 30 18 30"></polygon>
                            <polygon id="Path" points="18 32 31 32 31 33 18 33"></polygon>
                        </g>
                    </g>
                </g>
            </g>
        </g>
    </g>
</svg>