<?xml version="1.0" encoding="UTF-8"?>
<svg width="34px" height="20px" viewBox="0 0 34 20" version="1.1" xmlns="http://www.w3.org/2000/svg" xmlns:xlink="http://www.w3.org/1999/xlink">
    <!-- Generator: Sketch 58 (84663) - https://sketch.com -->
    <title>010-smoke</title>
    <desc>Created with Sketch.</desc>
    <g id="Page-1" stroke="none" stroke-width="1" fill="none" fill-rule="evenodd">
        <g id="Property-details" transform="translate(-824.000000, -1242.000000)" fill="#000000" fill-rule="nonzero">
            <g id="Blocks/Recommended/features/icon" transform="translate(223.000000, 1086.000000)">
                <g id="icon-copy-10">
                    <g transform="translate(601.000000, 147.000000)">
                        <g id="010-smoke" transform="translate(0.000000, 9.000000)">
                            <path d="M32.9461992,13 C31.5005352,13 24.7891875,13 23.1375977,13 C22.8624766,13 22.6395508,13.2346568 22.6395508,13.5242556 C22.6395508,13.8138543 22.8624766,14.0485111 23.1375977,14.0485111 L31.1830469,14.0485111 L31.1830469,18.951419 L10.5253906,18.951419 L10.5253906,14.0485111 L21.1462734,14.0485111 C21.4213945,14.0485111 21.6443203,13.8138543 21.6443203,13.5242556 C21.6443203,13.2346568 21.4213945,13 21.1462734,13 C19.6435664,13 1.44035156,13 0.498046875,13 C0.222925781,13 0,13.2346568 0,13.5242556 L0,19.4756745 C0,19.7652733 0.222925781,20 0.498046875,20 L1.96828125,20 C2.24340234,20 2.46632812,19.7652733 2.46632812,19.4756745 C2.46632812,19.1860758 2.24340234,18.951419 1.96828125,18.951419 L0.99609375,18.951419 L0.99609375,14.0485111 L9.52929688,14.0485111 L9.52929688,18.951419 L3.95960547,18.951419 C3.68448437,18.951419 3.46155859,19.1860758 3.46155859,19.4756745 C3.46155859,19.7652733 3.68448437,20 3.95960547,20 C5.2615,20 31.2126641,20 32.9461992,20 C33.5272539,20 34,19.5023766 34,18.8907451 L34,14.1093248 C34,13.4976234 33.5272539,13 32.9461992,13 Z M33.0039063,18.8907451 C33.0039063,18.9242276 32.9780078,18.9514889 32.9461992,18.9514889 L32.1791406,18.9514889 L32.1791406,14.0485111 L32.9461992,14.0485111 C32.9780078,14.0485111 33.0039063,14.0757724 33.0039063,14.1092549 L33.0039063,18.8907451 Z" id="Shape"></path>
                            <path d="M31.1849324,2.77962433 C31.6224393,2.77962433 31.9783562,3.10598887 31.9783562,3.5070295 C31.9783562,3.90807014 31.6223711,4.23437224 31.1849324,4.23437224 L30.2777051,4.23437224 C29.02178,4.23437224 28,5.17113273 28,6.3225558 C28,7.47397888 29.02178,8.41073937 30.2777051,8.41073937 L31.0838646,8.41073937 C31.5770813,8.41073937 31.9784243,8.77868776 31.9784243,9.23086529 L31.9784243,11.5317134 C31.9784243,11.7903949 32.207053,12 32.4892122,12 C32.7713714,12 33,11.7903949 33,11.5317134 L33,9.23086529 C33,8.26219887 32.1404462,7.47416619 31.0838646,7.47416619 L30.2777051,7.47416619 C29.5850768,7.47416619 29.0215757,6.95755242 29.0215757,6.3225558 C29.0215757,5.68755919 29.5850768,5.17094542 30.2777051,5.17094542 L31.1849324,5.17094542 C32.1857361,5.17094542 32.9999319,4.42449659 32.9999319,3.5070295 C32.9999319,2.58949997 32.1857361,1.84305115 31.1849324,1.84305115 C30.6115561,1.84305115 30.1451046,1.41534939 30.1451046,0.889682085 L30.1451046,0.468286591 C30.1451046,0.209605078 29.916476,0 29.6343168,0 C29.3521576,0 29.1235289,0.209605078 29.1235289,0.468286591 L29.1235289,0.889682085 C29.1235289,1.93183829 30.0482592,2.77962433 31.1849324,2.77962433 L31.1849324,2.77962433 Z" id="Path"></path>
                            <path d="M27.0269639,2.39937887 L27.4133783,2.39937887 C27.7840655,2.39937887 28.085626,2.71384205 28.085626,3.10038957 C28.085626,3.4869371 27.7840655,3.80140028 27.4133783,3.80140028 C26.847137,3.80140028 26.3864144,4.28183544 26.3864144,4.8723041 L26.3864144,6.5232517 C26.3864144,6.78660746 26.5910513,7 26.8436014,7 C27.0961515,7 27.3007884,6.78660746 27.3007884,6.5232517 L27.3007884,4.8723041 C27.3007884,4.8075299 27.3512618,4.75489689 27.4133783,4.75489689 C28.2883123,4.75489689 29,4.01269513 29,3.10038957 C29,2.18808402 28.2882513,1.44588226 27.4133783,1.44588226 L27.0269639,1.44588226 C26.9648474,1.44588226 26.914374,1.39324924 26.914374,1.32847504 L26.914374,0.476748304 C26.914374,0.213392541 26.7097371,0 26.457187,0 C26.2046369,0 26,0.213392541 26,0.476748304 L26,1.32847504 C26,1.91900727 26.4607226,2.39937887 27.0269639,2.39937887 Z" id="Path"></path>
                            <path d="M30.4573737,12 C30.7571205,12 31,11.7597624 31,11.4632762 L31,10.6772978 C31,9.75241526 30.2392379,9 29.3042566,9 L28.5426263,9 C28.2428795,9 28,9.24023759 28,9.53672384 C28,9.83321009 28.2428795,10.0734477 28.5426263,10.0734477 L29.3042566,10.0734477 C29.640902,10.0734477 29.9147474,10.3443143 29.9147474,10.6772978 L29.9147474,11.4632762 C29.9147474,11.7596908 30.1576993,12 30.4573737,12 Z" id="Path"></path>
                        </g>
                    </g>
                </g>
            </g>
        </g>
    </g>
</svg>