<?xml version="1.0" encoding="UTF-8"?>
<svg width="24px" height="37px" viewBox="0 0 24 37" version="1.1" xmlns="http://www.w3.org/2000/svg" xmlns:xlink="http://www.w3.org/1999/xlink">
    <!-- Generator: Sketch 58 (84663) - https://sketch.com -->
    <title>011-thunder</title>
    <desc>Created with Sketch.</desc>
    <g id="Page-1" stroke="none" stroke-width="1" fill="none" fill-rule="evenodd">
        <g id="Property-details" transform="translate(-230.000000, -1304.000000)" fill="#000000" fill-rule="nonzero">
            <g id="Blocks/Recommended/features/icon" transform="translate(223.000000, 1086.000000)">
                <g id="icon-copy-12">
                    <g transform="translate(7.000000, 217.000000)">
                        <g id="011-thunder" transform="translate(0.000000, 1.000000)">
                            <path d="M23.9064581,10.8795684 C23.7888607,10.7063479 23.5806106,10.6143905 23.3718439,10.6423996 L13.9756408,11.9010675 L15.184244,5.64781415 C15.2414555,5.35178967 15.0443525,5.06609586 14.7439734,5.00971371 C14.4442587,4.95340431 14.1537717,5.14764991 14.0964864,5.44360164 L12.7439316,12.4417541 C12.7105643,12.6141744 12.7634942,12.7919055 12.8860377,12.9192928 C13.0085073,13.04668 13.1859738,13.1081548 13.362333,13.0845106 L22.3988785,11.8740041 L9.71954462,33.3895781 L11.9605394,21.9786312 C12.0186368,21.6828249 11.8224196,21.3965491 11.5221882,21.3392939 C11.2220306,21.2818205 10.9314697,21.4754114 10.8734462,21.7712903 L8.01013741,36.3506231 C7.95883157,36.6120181 8.10640045,36.8717397 8.3593124,36.9651522 C8.42302022,36.9887236 8.48872123,37 8.55353637,37 C8.74606246,37 8.93091112,36.9006219 9.03241548,36.7283472 L23.9250611,11.4570672 C24.03129,11.2768625 24.0241293,11.052789 23.9064581,10.8795684 Z" id="Path"></path>
                            <path d="M15.669222,0.0463037841 C15.4325685,-0.0549346214 15.1550615,0.0139647316 14.9988524,0.212649574 L0.113007018,19.1390085 C-0.0210669074,19.3095755 -0.0371854901,19.5403848 0.0718563503,19.7267636 C0.18097247,19.9130709 0.394005166,20.0189598 0.615357131,19.9967089 L11.1803081,18.9255135 L11.0928073,19.3613753 C11.0343495,19.6522836 11.2317836,19.9338194 11.533877,19.9901266 C11.5696053,19.9967804 11.6051851,20 11.6403191,20 C11.9018561,20 12.135167,19.821849 12.1866425,19.565283 L12.4172051,18.4179621 C12.4507793,18.2509724 12.4001952,18.0786167 12.2808285,17.9532671 C12.1614619,17.827989 11.9882428,17.7649565 11.8119783,17.7823423 L1.77767778,18.7997346 L14.4504492,2.68701637 L14.3284827,3.30389095 C14.2709164,3.59501397 14.4692418,3.87597737 14.7714838,3.93142597 C15.0732801,3.98701766 15.3654201,3.79584521 15.4229865,3.50472219 L15.9901081,0.637063865 C16.0385381,0.392231481 15.9055784,0.14754219 15.669222,0.0463037841 Z" id="Path"></path>
                        </g>
                    </g>
                </g>
            </g>
        </g>
    </g>
</svg>