<svg id="svg" version="1.1" xmlns="http://www.w3.org/2000/svg" xmlns:xlink="http://www.w3.org/1999/xlink" width="400" height="400" viewBox="0, 0, 400,400"><g id="svgg"><path id="path0" d="M127.900 0.288 C 127.075 0.376,126.400 0.617,126.400 0.824 C 126.400 1.031,125.860 1.200,125.200 1.200 C 124.540 1.200,124.000 1.380,124.000 1.600 C 124.000 1.820,123.728 2.000,123.395 2.000 C 123.062 2.000,122.477 2.160,122.095 2.356 C 121.713 2.552,120.545 3.120,119.500 3.619 C 118.455 4.118,117.600 4.677,117.600 4.863 C 117.600 5.048,117.280 5.200,116.888 5.200 C 116.497 5.200,115.917 5.560,115.600 6.000 C 115.283 6.440,114.779 6.800,114.479 6.800 C 113.770 6.800,106.800 13.770,106.800 14.479 C 106.800 14.779,106.440 15.283,106.000 15.600 C 105.560 15.917,105.200 16.497,105.200 16.888 C 105.200 17.280,105.048 17.600,104.863 17.600 C 104.677 17.600,104.118 18.455,103.619 19.500 C 103.120 20.545,102.552 21.713,102.356 22.095 C 102.160 22.477,102.000 23.062,102.000 23.395 C 102.000 23.728,101.820 24.000,101.600 24.000 C 101.380 24.000,101.200 24.540,101.200 25.200 C 101.200 25.860,101.020 26.400,100.800 26.400 C 100.580 26.400,100.400 27.019,100.400 27.776 C 100.400 28.533,100.220 29.264,100.000 29.400 C 99.751 29.554,99.600 33.404,99.600 39.624 L 99.600 49.600 77.000 49.600 C 62.200 49.600,54.400 49.738,54.400 50.000 C 54.400 50.220,53.680 50.400,52.800 50.400 C 51.920 50.400,51.200 50.580,51.200 50.800 C 51.200 51.020,50.660 51.200,50.000 51.200 C 49.340 51.200,48.800 51.380,48.800 51.600 C 48.800 51.820,48.440 52.000,48.000 52.000 C 47.560 52.000,47.200 52.180,47.200 52.400 C 47.200 52.620,46.966 52.800,46.680 52.800 C 45.944 52.800,44.007 53.741,44.003 54.100 C 44.001 54.265,43.640 54.400,43.200 54.400 C 42.760 54.400,42.400 54.580,42.400 54.800 C 42.400 55.020,42.170 55.200,41.888 55.200 C 41.607 55.200,41.117 55.560,40.800 56.000 C 40.483 56.440,39.999 56.800,39.725 56.800 C 38.884 56.800,32.400 62.902,32.400 63.694 C 32.400 63.921,32.084 64.397,31.697 64.753 C 31.311 65.109,30.740 65.895,30.430 66.500 C 30.119 67.105,29.715 67.600,29.532 67.600 C 29.350 67.600,29.200 67.960,29.200 68.400 C 29.200 68.840,29.020 69.200,28.800 69.200 C 28.580 69.200,28.400 69.560,28.400 70.000 C 28.400 70.440,28.220 70.800,28.000 70.800 C 27.780 70.800,27.600 71.160,27.600 71.600 C 27.600 72.040,27.424 72.400,27.208 72.400 C 26.992 72.400,26.878 72.932,26.953 73.582 C 27.036 74.296,26.915 74.731,26.645 74.682 C 26.391 74.635,26.209 75.146,26.221 75.875 C 26.232 76.576,26.106 77.066,25.941 76.964 C 25.518 76.702,25.056 79.443,25.422 80.036 C 25.618 80.352,25.557 80.420,25.248 80.229 C 24.355 79.678,24.815 119.953,25.717 121.329 C 26.111 121.931,26.332 122.586,26.208 122.787 C 26.084 122.987,26.300 123.328,26.688 123.545 C 27.076 123.762,27.265 124.068,27.108 124.225 C 26.952 124.382,27.178 125.008,27.612 125.617 C 28.045 126.225,28.400 126.828,28.400 126.955 C 28.400 127.841,34.094 133.315,36.112 134.368 C 36.711 134.680,37.200 135.085,37.200 135.268 C 37.200 135.450,37.560 135.600,38.000 135.600 C 38.440 135.600,38.800 135.780,38.800 136.000 C 38.800 136.220,39.340 136.400,40.000 136.400 C 40.660 136.400,41.200 136.580,41.200 136.800 C 41.200 137.020,41.639 137.200,42.176 137.200 C 42.713 137.200,43.264 137.380,43.400 137.600 C 43.536 137.820,44.987 138.000,46.624 138.000 L 49.600 138.000 49.600 248.376 C 49.600 321.529,49.735 358.836,50.000 359.000 C 50.220 359.136,50.400 360.047,50.400 361.024 C 50.400 362.001,50.580 362.800,50.800 362.800 C 51.020 362.800,51.200 363.520,51.200 364.400 C 51.200 365.280,51.380 366.000,51.600 366.000 C 51.820 366.000,52.000 366.439,52.000 366.976 C 52.000 367.513,52.180 368.064,52.400 368.200 C 52.620 368.336,52.800 368.797,52.800 369.224 C 52.800 369.651,52.980 370.000,53.200 370.000 C 53.420 370.000,53.600 370.360,53.600 370.800 C 53.600 371.240,53.780 371.600,54.000 371.600 C 54.220 371.600,54.400 371.960,54.400 372.400 C 54.400 372.840,54.580 373.200,54.800 373.200 C 55.020 373.200,55.200 373.560,55.200 374.000 C 55.200 374.440,55.380 374.800,55.600 374.800 C 55.820 374.800,56.000 375.070,56.000 375.400 C 56.000 375.730,56.180 376.000,56.400 376.000 C 56.620 376.000,56.800 376.320,56.800 376.712 C 56.800 377.103,57.160 377.683,57.600 378.000 C 58.040 378.317,58.400 378.887,58.400 379.266 C 58.400 379.645,58.800 380.235,59.289 380.577 C 59.778 380.920,60.003 381.203,59.789 381.206 C 59.563 381.210,59.576 381.336,59.819 381.506 C 60.050 381.668,60.677 382.430,61.214 383.200 C 62.456 384.983,64.998 387.528,66.800 388.794 C 67.570 389.335,68.648 390.187,69.196 390.689 C 69.744 391.190,70.469 391.600,70.808 391.600 C 71.146 391.600,71.683 391.960,72.000 392.400 C 72.317 392.840,72.897 393.200,73.288 393.200 C 73.680 393.200,74.000 393.346,74.000 393.525 C 74.000 393.704,74.630 394.098,75.400 394.400 C 76.170 394.702,76.800 395.096,76.800 395.275 C 76.800 395.454,77.160 395.600,77.600 395.600 C 78.040 395.600,78.400 395.780,78.400 396.000 C 78.400 396.220,78.760 396.400,79.200 396.400 C 79.640 396.400,80.000 396.580,80.000 396.800 C 80.000 397.020,80.349 397.200,80.776 397.200 C 81.203 397.200,81.664 397.380,81.800 397.600 C 81.936 397.820,82.487 398.000,83.024 398.000 C 83.561 398.000,84.000 398.180,84.000 398.400 C 84.000 398.620,84.705 398.800,85.567 398.800 C 86.464 398.800,87.204 399.013,87.300 399.300 C 87.545 400.036,312.455 400.036,312.700 399.300 C 312.796 399.013,313.536 398.800,314.433 398.800 C 315.295 398.800,316.000 398.620,316.000 398.400 C 316.000 398.180,316.439 398.000,316.976 398.000 C 317.513 398.000,318.064 397.820,318.200 397.600 C 318.336 397.380,318.797 397.200,319.224 397.200 C 319.651 397.200,320.000 397.020,320.000 396.800 C 320.000 396.580,320.360 396.400,320.800 396.400 C 321.240 396.400,321.600 396.220,321.600 396.000 C 321.600 395.780,321.960 395.600,322.400 395.600 C 322.840 395.600,323.200 395.420,323.200 395.200 C 323.200 394.980,323.560 394.800,324.000 394.800 C 324.440 394.800,324.800 394.620,324.800 394.400 C 324.800 394.180,325.070 394.000,325.400 394.000 C 325.730 394.000,326.000 393.820,326.000 393.600 C 326.000 393.380,326.320 393.200,326.712 393.200 C 327.103 393.200,327.683 392.840,328.000 392.400 C 328.317 391.960,328.854 391.600,329.192 391.600 C 329.531 391.600,330.256 391.190,330.804 390.689 C 331.352 390.187,332.430 389.335,333.200 388.794 C 334.992 387.535,337.535 384.992,338.794 383.200 C 339.335 382.430,340.187 381.352,340.689 380.804 C 341.190 380.256,341.600 379.531,341.600 379.192 C 341.600 378.854,341.960 378.317,342.400 378.000 C 342.840 377.683,343.200 377.103,343.200 376.712 C 343.200 376.320,343.380 376.000,343.600 376.000 C 343.820 376.000,344.000 375.730,344.000 375.400 C 344.000 375.070,344.180 374.800,344.400 374.800 C 344.620 374.800,344.800 374.440,344.800 374.000 C 344.800 373.560,344.980 373.200,345.200 373.200 C 345.420 373.200,345.600 372.840,345.600 372.400 C 345.600 371.960,345.780 371.600,346.000 371.600 C 346.220 371.600,346.400 371.240,346.400 370.800 C 346.400 370.360,346.580 370.000,346.800 370.000 C 347.020 370.000,347.200 369.651,347.200 369.224 C 347.200 368.797,347.380 368.336,347.600 368.200 C 347.820 368.064,348.000 367.524,348.000 367.000 C 348.000 366.476,348.180 365.936,348.400 365.800 C 348.620 365.664,348.800 364.933,348.800 364.176 C 348.800 363.419,348.980 362.800,349.200 362.800 C 349.420 362.800,349.600 361.900,349.600 360.800 C 349.600 359.700,349.780 358.800,350.000 358.800 C 350.266 358.800,350.400 321.733,350.400 248.400 L 350.400 138.000 353.376 138.000 C 355.013 138.000,356.464 137.820,356.600 137.600 C 356.736 137.380,357.276 137.200,357.800 137.200 C 358.324 137.200,358.864 137.020,359.000 136.800 C 359.136 136.580,359.687 136.400,360.224 136.400 C 360.761 136.400,361.200 136.220,361.200 136.000 C 361.200 135.780,361.560 135.600,362.000 135.600 C 362.440 135.600,362.800 135.450,362.800 135.268 C 362.800 135.085,363.289 134.680,363.888 134.368 C 367.210 132.634,371.182 128.183,373.320 123.800 C 373.749 122.920,374.303 121.840,374.550 121.400 C 375.179 120.281,375.401 82.656,374.798 79.377 C 374.037 75.241,373.917 74.800,373.555 74.800 C 373.360 74.800,373.200 74.260,373.200 73.600 C 373.200 72.940,373.020 72.400,372.800 72.400 C 372.580 72.400,372.400 72.040,372.400 71.600 C 372.400 71.160,372.220 70.800,372.000 70.800 C 371.780 70.800,371.600 70.440,371.600 70.000 C 371.600 69.560,371.420 69.200,371.200 69.200 C 370.980 69.200,370.800 68.840,370.800 68.400 C 370.800 67.960,370.650 67.600,370.468 67.600 C 370.285 67.600,369.881 67.105,369.570 66.500 C 369.260 65.895,368.689 65.109,368.303 64.753 C 367.916 64.397,367.600 63.921,367.600 63.694 C 367.600 62.979,362.000 57.600,361.256 57.600 C 361.071 57.600,360.354 57.060,359.663 56.400 C 358.972 55.740,358.226 55.200,358.004 55.200 C 357.782 55.200,357.600 55.020,357.600 54.800 C 357.600 54.580,357.240 54.400,356.800 54.400 C 356.360 54.400,355.999 54.265,355.997 54.100 C 355.993 53.741,354.056 52.800,353.320 52.800 C 353.034 52.800,352.800 52.620,352.800 52.400 C 352.800 52.180,352.440 52.000,352.000 52.000 C 351.560 52.000,351.200 51.820,351.200 51.600 C 351.200 51.380,350.660 51.200,350.000 51.200 C 349.340 51.200,348.800 51.020,348.800 50.800 C 348.800 50.580,348.080 50.400,347.200 50.400 C 346.320 50.400,345.600 50.220,345.600 50.000 C 345.600 49.738,337.800 49.600,323.000 49.600 L 300.400 49.600 300.400 39.624 C 300.400 33.404,300.249 29.554,300.000 29.400 C 299.780 29.264,299.600 28.533,299.600 27.776 C 299.600 27.019,299.420 26.400,299.200 26.400 C 298.980 26.400,298.800 25.860,298.800 25.200 C 298.800 24.540,298.620 24.000,298.400 24.000 C 298.180 24.000,298.000 23.651,298.000 23.224 C 298.000 22.797,297.820 22.336,297.600 22.200 C 297.380 22.064,297.200 21.513,297.200 20.976 C 297.200 20.439,297.020 20.000,296.800 20.000 C 296.580 20.000,296.400 19.764,296.400 19.475 C 296.400 19.187,296.040 18.564,295.600 18.092 C 295.160 17.620,294.800 16.996,294.800 16.705 C 294.800 16.414,294.440 15.917,294.000 15.600 C 293.560 15.283,293.200 14.769,293.200 14.458 C 293.200 13.720,286.280 6.800,285.542 6.800 C 285.231 6.800,284.717 6.440,284.400 6.000 C 284.083 5.560,283.586 5.200,283.295 5.200 C 283.004 5.200,282.380 4.840,281.908 4.400 C 281.436 3.960,280.813 3.600,280.525 3.600 C 280.236 3.600,280.000 3.420,280.000 3.200 C 280.000 2.980,279.561 2.800,279.024 2.800 C 278.487 2.800,277.936 2.620,277.800 2.400 C 277.664 2.180,277.203 2.000,276.776 2.000 C 276.349 2.000,276.000 1.820,276.000 1.600 C 276.000 1.380,275.475 1.200,274.833 1.200 C 274.192 1.200,273.592 0.975,273.500 0.700 C 273.341 0.224,132.228 -0.176,127.900 0.288 M266.000 26.400 C 266.000 26.620,266.360 26.800,266.800 26.800 C 267.240 26.800,267.600 26.980,267.600 27.200 C 267.600 27.420,267.875 27.600,268.211 27.600 C 269.004 27.600,272.400 30.996,272.400 31.789 C 272.400 32.125,272.580 32.400,272.800 32.400 C 273.020 32.400,273.200 32.760,273.200 33.200 C 273.200 33.640,273.380 34.000,273.600 34.000 C 273.820 34.000,274.000 34.810,274.000 35.800 C 274.000 36.790,274.180 37.600,274.400 37.600 C 274.649 37.600,274.800 39.867,274.800 43.600 L 274.800 49.600 200.000 49.600 L 125.200 49.600 125.200 43.824 C 125.200 40.404,125.363 37.946,125.600 37.800 C 125.820 37.664,126.000 36.753,126.000 35.776 C 126.000 34.799,126.180 34.000,126.400 34.000 C 126.620 34.000,126.800 33.640,126.800 33.200 C 126.800 32.760,126.980 32.400,127.200 32.400 C 127.420 32.400,127.600 32.125,127.600 31.789 C 127.600 30.996,130.996 27.600,131.789 27.600 C 132.125 27.600,132.400 27.420,132.400 27.200 C 132.400 26.980,132.760 26.800,133.200 26.800 C 133.640 26.800,134.000 26.620,134.000 26.400 C 134.000 26.135,156.267 26.000,200.000 26.000 C 243.733 26.000,266.000 26.135,266.000 26.400 M341.200 76.400 C 341.200 76.620,341.560 76.800,342.000 76.800 C 342.440 76.800,342.800 76.980,342.800 77.200 C 342.800 77.420,342.985 77.600,343.211 77.600 C 344.873 77.600,348.800 83.527,348.800 86.038 C 348.800 86.897,348.980 87.600,349.200 87.600 C 349.458 87.600,349.600 91.933,349.600 99.800 L 349.600 112.000 200.000 112.000 L 50.400 112.000 50.400 100.024 C 50.400 92.471,50.548 87.956,50.800 87.800 C 51.020 87.664,51.200 86.860,51.200 86.014 C 51.200 83.525,55.136 77.600,56.789 77.600 C 57.015 77.600,57.200 77.420,57.200 77.200 C 57.200 76.980,57.560 76.800,58.000 76.800 C 58.440 76.800,58.800 76.620,58.800 76.400 C 58.800 76.134,106.133 76.000,200.000 76.000 C 293.867 76.000,341.200 76.134,341.200 76.400 M324.800 244.176 C 324.800 313.996,324.665 349.636,324.400 349.800 C 324.180 349.936,324.000 351.387,324.000 353.024 C 324.000 354.741,323.831 356.000,323.600 356.000 C 323.380 356.000,323.200 356.540,323.200 357.200 C 323.200 357.860,323.054 358.400,322.875 358.400 C 322.696 358.400,322.302 359.030,322.000 359.800 C 321.698 360.570,321.304 361.200,321.125 361.200 C 320.946 361.200,320.800 361.520,320.800 361.912 C 320.800 362.303,320.440 362.883,320.000 363.200 C 319.560 363.517,319.200 364.011,319.200 364.297 C 319.200 364.975,314.975 369.200,314.297 369.200 C 314.011 369.200,313.517 369.560,313.200 370.000 C 312.883 370.440,312.303 370.800,311.912 370.800 C 311.520 370.800,311.200 370.980,311.200 371.200 C 311.200 371.420,310.930 371.600,310.600 371.600 C 310.270 371.600,310.000 371.780,310.000 372.000 C 310.000 372.220,309.640 372.400,309.200 372.400 C 308.760 372.400,308.400 372.580,308.400 372.800 C 308.400 373.020,307.860 373.200,307.200 373.200 C 306.540 373.200,306.000 373.380,306.000 373.600 C 306.000 373.825,304.875 374.000,303.424 374.000 C 302.007 374.000,300.736 374.180,300.600 374.400 C 300.257 374.954,99.743 374.954,99.400 374.400 C 99.264 374.180,97.993 374.000,96.576 374.000 C 95.125 374.000,94.000 373.825,94.000 373.600 C 94.000 373.380,93.460 373.200,92.800 373.200 C 92.140 373.200,91.600 373.020,91.600 372.800 C 91.600 372.580,91.240 372.400,90.800 372.400 C 90.360 372.400,90.000 372.220,90.000 372.000 C 90.000 371.780,89.730 371.600,89.400 371.600 C 89.070 371.600,88.800 371.420,88.800 371.200 C 88.800 370.980,88.480 370.800,88.088 370.800 C 87.697 370.800,87.117 370.440,86.800 370.000 C 86.483 369.560,85.989 369.200,85.703 369.200 C 85.025 369.200,80.800 364.975,80.800 364.297 C 80.800 364.011,80.440 363.517,80.000 363.200 C 79.560 362.883,79.200 362.303,79.200 361.912 C 79.200 361.520,79.020 361.200,78.800 361.200 C 78.580 361.200,78.400 360.930,78.400 360.600 C 78.400 360.270,78.220 360.000,78.000 360.000 C 77.780 360.000,77.600 359.640,77.600 359.200 C 77.600 358.760,77.420 358.400,77.200 358.400 C 76.980 358.400,76.800 357.860,76.800 357.200 C 76.800 356.540,76.620 356.000,76.400 356.000 C 76.169 356.000,76.000 354.733,76.000 353.000 C 76.000 351.267,75.831 350.000,75.600 350.000 C 75.334 350.000,75.200 314.533,75.200 244.400 L 75.200 138.800 200.000 138.800 L 324.800 138.800 324.800 244.176 M107.300 162.539 C 106.585 162.774,106.000 163.108,106.000 163.283 C 106.000 163.457,105.744 163.600,105.432 163.600 C 105.119 163.600,104.039 164.424,103.032 165.432 C 102.024 166.439,101.200 167.519,101.200 167.832 C 101.200 168.144,101.020 168.400,100.800 168.400 C 100.580 168.400,100.400 168.760,100.400 169.200 C 100.400 169.640,100.220 170.000,100.000 170.000 C 99.735 170.000,99.600 199.000,99.600 256.200 C 99.600 313.400,99.735 342.400,100.000 342.400 C 100.220 342.400,100.400 342.760,100.400 343.200 C 100.400 343.640,100.580 344.000,100.800 344.000 C 101.020 344.000,101.200 344.275,101.200 344.611 C 101.200 345.404,104.596 348.800,105.389 348.800 C 105.725 348.800,106.000 348.980,106.000 349.200 C 106.000 349.420,106.360 349.600,106.800 349.600 C 107.240 349.600,107.600 349.780,107.600 350.000 C 107.600 350.220,108.320 350.400,109.200 350.400 C 110.080 350.400,110.800 350.580,110.800 350.800 C 110.800 351.059,115.800 351.200,125.000 351.200 C 134.200 351.200,139.200 351.059,139.200 350.800 C 139.200 350.580,139.920 350.400,140.800 350.400 C 141.680 350.400,142.400 350.220,142.400 350.000 C 142.400 349.780,142.760 349.600,143.200 349.600 C 143.640 349.600,144.000 349.420,144.000 349.200 C 144.000 348.980,144.275 348.800,144.611 348.800 C 145.404 348.800,148.800 345.404,148.800 344.611 C 148.800 344.275,148.980 344.000,149.200 344.000 C 149.420 344.000,149.600 343.640,149.600 343.200 C 149.600 342.760,149.780 342.400,150.000 342.400 C 150.265 342.400,150.400 313.400,150.400 256.200 C 150.400 199.000,150.265 170.000,150.000 170.000 C 149.780 170.000,149.600 169.640,149.600 169.200 C 149.600 168.760,149.420 168.400,149.200 168.400 C 148.980 168.400,148.800 168.152,148.800 167.848 C 148.800 167.228,145.805 164.000,145.229 164.000 C 145.024 164.000,144.619 163.775,144.329 163.500 C 142.878 162.128,141.133 161.999,124.772 162.056 C 114.556 162.092,108.121 162.270,107.300 162.539 M182.200 162.542 C 181.540 162.793,180.651 163.314,180.225 163.699 C 179.798 164.085,179.290 164.400,179.096 164.400 C 178.377 164.400,175.913 167.535,176.229 168.047 C 176.349 168.241,176.278 168.400,176.072 168.400 C 174.820 168.400,174.791 170.634,174.895 256.858 C 174.997 341.043,175.018 343.136,175.762 343.958 C 176.181 344.421,176.361 344.806,176.162 344.813 C 175.963 344.820,176.149 345.090,176.576 345.413 C 177.004 345.736,177.223 346.000,177.063 346.000 C 176.904 346.000,177.403 346.630,178.173 347.400 C 178.943 348.170,179.849 348.800,180.187 348.800 C 180.524 348.800,180.800 348.980,180.800 349.200 C 180.800 349.420,181.160 349.600,181.600 349.600 C 182.040 349.600,182.400 349.780,182.400 350.000 C 182.400 350.220,183.109 350.400,183.976 350.400 C 184.843 350.400,185.664 350.580,185.800 350.800 C 185.957 351.054,191.130 351.200,200.000 351.200 C 208.870 351.200,214.043 351.054,214.200 350.800 C 214.336 350.580,215.157 350.400,216.024 350.400 C 216.891 350.400,217.600 350.220,217.600 350.000 C 217.600 349.780,217.960 349.600,218.400 349.600 C 218.840 349.600,219.200 349.420,219.200 349.200 C 219.200 348.980,219.484 348.800,219.831 348.800 C 220.475 348.800,223.600 345.812,223.600 345.196 C 223.600 345.010,223.915 344.542,224.300 344.157 C 224.962 343.495,225.006 338.721,225.104 256.880 L 225.207 170.302 224.378 168.642 C 223.461 166.805,221.502 164.400,220.923 164.400 C 220.718 164.400,220.202 164.085,219.775 163.700 C 218.004 162.101,216.768 161.998,199.772 162.043 C 188.566 162.072,183.021 162.229,182.200 162.542 M257.800 162.400 C 257.664 162.620,257.203 162.800,256.776 162.800 C 256.349 162.800,256.000 162.980,256.000 163.200 C 256.000 163.420,255.744 163.600,255.432 163.600 C 254.692 163.600,251.200 167.092,251.200 167.832 C 251.200 168.144,251.020 168.400,250.800 168.400 C 250.580 168.400,250.400 168.760,250.400 169.200 C 250.400 169.640,250.220 170.000,250.000 170.000 C 249.735 170.000,249.600 199.000,249.600 256.200 C 249.600 313.400,249.735 342.400,250.000 342.400 C 250.220 342.400,250.400 342.760,250.400 343.200 C 250.400 343.640,250.580 344.000,250.800 344.000 C 251.020 344.000,251.200 344.275,251.200 344.611 C 251.200 345.404,254.596 348.800,255.389 348.800 C 255.725 348.800,256.000 348.980,256.000 349.200 C 256.000 349.420,256.360 349.600,256.800 349.600 C 257.240 349.600,257.600 349.780,257.600 350.000 C 257.600 350.220,258.320 350.400,259.200 350.400 C 260.080 350.400,260.800 350.580,260.800 350.800 C 260.800 351.059,265.800 351.200,275.000 351.200 C 284.200 351.200,289.200 351.059,289.200 350.800 C 289.200 350.580,289.920 350.400,290.800 350.400 C 291.680 350.400,292.400 350.220,292.400 350.000 C 292.400 349.780,292.760 349.600,293.200 349.600 C 293.640 349.600,294.000 349.420,294.000 349.200 C 294.000 348.980,294.275 348.800,294.611 348.800 C 295.404 348.800,298.800 345.404,298.800 344.611 C 298.800 344.275,298.980 344.000,299.200 344.000 C 299.420 344.000,299.600 343.640,299.600 343.200 C 299.600 342.760,299.780 342.400,300.000 342.400 C 300.265 342.400,300.400 313.400,300.400 256.200 C 300.400 199.000,300.265 170.000,300.000 170.000 C 299.780 170.000,299.600 169.640,299.600 169.200 C 299.600 168.760,299.420 168.400,299.200 168.400 C 298.980 168.400,298.800 168.152,298.800 167.848 C 298.800 167.228,295.805 164.000,295.229 164.000 C 295.024 164.000,294.619 163.775,294.329 163.500 C 292.886 162.135,291.101 162.000,274.495 162.000 C 263.961 162.000,257.958 162.144,257.800 162.400 M137.200 256.600 L 137.200 337.200 125.000 337.200 L 112.800 337.200 112.800 256.600 L 112.800 176.000 125.000 176.000 L 137.200 176.000 137.200 256.600 M212.000 256.600 L 212.000 337.200 200.000 337.200 L 188.000 337.200 188.000 256.600 L 188.000 176.000 200.000 176.000 L 212.000 176.000 212.000 256.600 M287.200 256.600 L 287.200 337.200 275.000 337.200 L 262.800 337.200 262.800 256.600 L 262.800 176.000 275.000 176.000 L 287.200 176.000 287.200 256.600 " stroke="none" fill="#343434" fill-rule="evenodd"></path><path id="path1" d="" stroke="none" fill="#383434" fill-rule="evenodd"></path><path id="path2" d="" stroke="none" fill="#383434" fill-rule="evenodd"></path><path id="path3" d="" stroke="none" fill="#383434" fill-rule="evenodd"></path><path id="path4" d="" stroke="none" fill="#383434" fill-rule="evenodd"></path><path id="path5" d="" stroke="none" fill="#383434" fill-rule="evenodd"></path><path id="path6" d="" stroke="none" fill="#383434" fill-rule="evenodd"></path><path id="path7" d="" stroke="none" fill="#383434" fill-rule="evenodd"></path><path id="path8" d="" stroke="none" fill="#383434" fill-rule="evenodd"></path></g></svg>