<?xml version="1.0" encoding="UTF-8"?>
<svg width="29px" height="32px" viewBox="0 0 29 32" version="1.1" xmlns="http://www.w3.org/2000/svg" xmlns:xlink="http://www.w3.org/1999/xlink">
    <!-- Generator: Sketch 58 (84663) - https://sketch.com -->
    <title>012-water</title>
    <desc>Created with Sketch.</desc>
    <g id="Page-1" stroke="none" stroke-width="1" fill="none" fill-rule="evenodd">
        <g id="Property-details" transform="translate(-528.000000, -1309.000000)" fill="#000000" fill-rule="nonzero">
            <g id="Blocks/Recommended/features/icon" transform="translate(223.000000, 1086.000000)">
                <g id="icon-copy-13">
                    <g transform="translate(305.000000, 217.000000)">
                        <g id="012-water" transform="translate(0.000000, 6.000000)">
                            <path d="M8,22 C13.1588541,22 16,19.0225391 16,13.6159285 C16,8.55396353 8.70729167,0.505838279 8.396875,0.166309978 C8.29296873,0.060127482 8.1497396,0 8,0 C7.8502604,0 7.7067708,0.060127482 7.603125,0.166309978 C7.29270833,0.505838279 0,8.55396353 0,13.6159285 C0,19.0225391 2.84114587,22 8,22 Z M8,1.31538424 C9.52682293,3.07596765 14.9333333,9.59199384 14.9333333,13.6159285 C14.9333333,16.9625977 13.7302083,20.9519911 8,20.9519911 C2.26979167,20.9519911 1.06666667,16.9625977 1.06666667,13.6159285 C1.06666667,9.59199384 6.47291667,3.07596765 8,1.31538424 Z" id="Shape"></path>
                            <path d="M24,24 C27.1776258,24 29,21.9436678 29,18.3571214 C29,14.9894401 24.5938042,10.3601278 24.4066298,10.1644119 C24.2992079,10.0591883 24.1527235,10 24,10 C23.8472765,10 23.7007921,10.0591883 23.5933702,10.1644119 C23.4061958,10.3601278 19,14.9894401 19,18.3571214 C19,21.9436678 20.8221028,24 24,24 L24,24 Z M24,11.3447576 C25.0715061,12.5537768 27.8888889,15.9609169 27.8888889,18.3571214 C27.8888889,21.3865088 26.5805664,22.9225103 24,22.9225103 C21.4194336,22.9225103 20.1111111,21.3865088 20.1111111,18.3571214 C20.1111111,15.9609169 22.9282226,12.5537768 24,11.3447576 Z" id="Shape"></path>
                            <path d="M15.5714286,21.1776491 C15.4257813,21.3367539 12,25.1055486 12,27.5966674 C12,30.3949767 13.4581473,32 16,32 C18.5415736,32 20,30.3949767 20,27.5966674 C20,25.1055486 16.5742187,21.3367539 16.4285714,21.1776491 C16.3169643,21.0642332 16.1621094,21 16,21 C15.8378906,21 15.6827567,21.0642332 15.5714286,21.1776491 Z M16,30.8991668 C14.1046317,30.8991668 13.1428571,29.7878521 13.1428571,27.5966674 C13.1428571,26.1004911 14.9308036,23.6650053 16,22.3961982 C17.0697544,23.6623176 18.8571429,26.098341 18.8571429,27.5966674 C18.8571429,29.7878521 17.8953683,30.8991668 16,30.8991668 Z" id="Shape"></path>
                            <path d="M7.45882115,19.9973909 C7.47515099,19.9992173 7.49148084,20 7.50805081,20 C7.77004878,20 7.98617907,19.7766607 7.99938705,19.4922684 C8.01235484,19.2078761 7.81807773,18.9623594 7.55728047,18.9339201 C6.52994115,18.8778244 5.57368463,18.3473936 4.92937624,17.4762138 C3.62130763,15.6232282 4.05452881,12.6360652 4.05837112,12.6063215 C4.09415268,12.3201027 3.91404407,12.0547569 3.65180603,12.0072712 C3.38956788,11.9600464 3.1400575,12.147641 3.08866649,12.4309897 C3.0668133,12.5721422 2.5790793,15.8966623 4.14554369,18.1217061 C4.9514695,19.2339671 6.15795685,19.9170305 7.45882115,19.9973909 L7.45882115,19.9973909 Z" id="Path"></path>
                            <path d="M23.5594678,22 C24.5918061,21.9834723 25.5760651,21.5084548 26.2958882,20.6793168 C26.9190063,19.7813135 27.1443779,18.6148885 26.9083525,17.508759 C26.8509851,17.1745327 26.5663341,16.9526335 26.2666582,17.0086439 C25.9669823,17.0649604 25.7620991,17.37868 25.8052611,17.7156608 C25.9765435,18.4557332 25.8448719,19.243246 25.4460325,19.8636457 C24.9398344,20.4151802 24.2653588,20.7307362 23.5594678,20.7463457 C23.2505039,20.7463457 23,21.02701 23,21.3731728 C23,21.7193357 23.2505039,22 23.5594678,22 L23.5594678,22 Z" id="Path"></path>
                            <path d="M15.6614693,28.8610647 C15.4707276,28.7855754 15.323567,28.6319635 15.2584939,28.440607 C15.1937193,28.249543 15.2175993,28.0397531 15.3241639,27.8674152 C15.4749066,27.57131 15.3525215,27.2111266 15.0501407,27.0633666 C14.7480584,26.915314 14.380903,27.0355702 14.2298619,27.3316754 C13.9785246,27.7892925 13.9310631,28.3285435 14.0985217,28.8215645 C14.2662789,29.3145855 14.6340312,29.7180728 15.1149152,29.9366406 C15.417296,30.0846932 15.7844514,29.964437 15.9354926,29.6680392 C16.0862352,29.371934 15.9638501,29.0120433 15.6614693,28.8639906 L15.6614693,28.8610647 Z" id="Path"></path>
                        </g>
                    </g>
                </g>
            </g>
        </g>
    </g>
</svg>