<?xml version="1.0" encoding="UTF-8"?>
<svg width="40px" height="32px" viewBox="0 0 40 32" version="1.1" xmlns="http://www.w3.org/2000/svg" xmlns:xlink="http://www.w3.org/1999/xlink">
    <!-- Generator: Sketch 58 (84663) - https://sketch.com -->
    <title>007-wifi</title>
    <desc>Created with Sketch.</desc>
    <g id="Page-1" stroke="none" stroke-width="1" fill="none" fill-rule="evenodd">
        <g id="Property-details" transform="translate(-1123.000000, -1166.000000)" fill="#000000" fill-rule="nonzero">
            <g id="Blocks/Recommended/features/icon" transform="translate(223.000000, 1086.000000)">
                <g id="icon-copy-7">
                    <g transform="translate(900.000000, 77.000000)">
                        <g id="007-wifi" transform="translate(0.000000, 3.000000)">
                            <path d="M3.31256372,12 C3.10535165,12 2.90576887,11.9209173 2.75928612,11.779803 L0.429294998,9.53549909 C0.147620864,9.2641482 -0.00466017725,8.90342497 0.000108703657,8.51977072 C0.00541050765,8.13758638 0.16623636,7.78215497 0.453403558,7.51932971 C5.74814453,2.67029255 12.6899009,0 20.0000002,0 C27.3100996,0 34.2518559,2.67029255 39.5465969,7.51932971 C39.8337641,7.78215497 39.9945899,8.13729242 39.9998915,8.51977072 C40.0046606,8.90371901 39.8520744,9.26444217 39.5704003,9.53579306 L37.7149521,11.3217699 C37.1509936,11.8644716 36.2547023,11.8753491 35.6736541,11.3470528 C31.4207717,7.4758195 25.8544273,5.3438189 20.0000002,5.3438189 C13.9050973,5.3438189 8.17487536,7.62957521 3.86462055,11.779803 C3.7181378,11.9209173 3.51947056,12 3.31256372,12 L3.31256372,12 Z M1.60603973,8.54064388 L3.32080332,10.1919742 C7.85658054,6.08907837 13.7485439,3.83860061 20.0000002,3.83860061 C26.2236859,3.83860061 32.1434199,6.09437011 36.6785867,10.1910922 L38.3936555,8.54034983 C33.4001198,4.00264592 26.8724824,1.50521829 20.0000002,1.50521829 C13.127518,1.50521829 6.59957545,4.00293989 1.60603973,8.54064388 Z" id="Shape"></path>
                            <path d="M30.6474094,18 C30.2908479,18 29.9336701,17.8698557 29.650763,17.6081175 C27.5169415,15.6337746 24.8851049,14.332827 22.0397014,13.8452814 C21.61041,13.7718708 21.3213395,13.3620723 21.3946857,12.9302816 C21.4680319,12.4988007 21.87421,12.2076362 22.3050423,12.2819761 C25.4182522,12.8153645 28.3000208,14.2293707 30.6455603,16.3731465 L32.3781346,14.6326645 C28.8584385,11.3771979 24.2890895,9.58591706 19.5,9.58591706 C14.7106222,9.58591706 10.1415814,11.3771979 6.62188528,14.6326645 L8.3544596,16.3731465 C10.4084632,14.496065 12.9108652,13.1607352 15.5969409,12.5090224 C16.0209933,12.4061856 16.4465865,12.6682335 16.5489015,13.0938293 C16.6512164,13.5194251 16.3904982,13.9478084 15.9670622,14.0506453 C13.5087297,14.646913 11.2202029,15.8772376 9.3492569,17.6081175 C8.76587668,18.1477009 7.86877173,18.1275673 7.30696406,17.5632038 L5.43293615,15.6802371 C5.14663919,15.3927896 4.99285864,15.0105588 5,14.6038578 C5.00734293,14.2021127 5.17961421,13.8146162 5.47269111,13.5404879 C9.2953258,9.96752836 14.2770163,8 19.5,8 C24.7230036,8 29.7046941,9.96752836 33.5273288,13.5404879 C33.8204057,13.8146162 33.9923688,14.2021127 34,14.6038578 C34.0068531,15.0105588 33.8533807,15.3927896 33.5670838,15.6802371 L31.6930559,17.562894 C31.4036771,17.853439 31.0258514,18 30.6474094,18 Z" id="Path"></path>
                            <path d="M25.7624161,23 C25.4347345,23 25.1052671,22.891055 24.833836,22.6714627 C23.6263843,21.6949297 22.0870842,21.1570138 20.499867,21.1570138 C18.9126498,21.1570138 17.3736473,21.6949297 16.1661956,22.6714627 C15.5932735,23.1344789 14.7638016,23.1046893 14.2364157,22.6022372 L12.4188392,20.8704657 C12.1408604,20.6054797 11.988478,20.2389251 12.0006805,19.8644267 C12.0125854,19.4924817 12.1866942,19.1381267 12.4786611,18.892433 C14.6929675,17.0273173 17.5418037,16 20.499867,16 C23.4579303,16 26.3067665,17.0273173 28.5213705,18.8927167 C28.8130398,19.1381267 28.9874463,19.4924817 28.9993511,19.8644267 C29.011256,20.2389251 28.8588736,20.6054797 28.5808948,20.8704657 L26.7633183,22.6022372 C26.4862324,22.8663721 26.1255148,23 25.7624161,23 L25.7624161,23 Z M20.499867,19.7044138 C22.4189325,19.7044138 24.2811523,20.3453167 25.7534875,21.5108012 L27.4302889,19.9129412 C25.5064614,18.3252948 23.0498908,17.4526 20.499867,17.4526 C17.9501408,17.4526 15.4932726,18.3255785 13.5694451,19.9129412 L15.2465441,21.5108012 C16.7185817,20.3453167 18.5808015,19.7044138 20.499867,19.7044138 L20.499867,19.7044138 Z" id="Shape"></path>
                            <path d="M20.5,32 C18.0187088,32 16,29.9814237 16,27.5001542 C16,26.2986941 16.4678248,25.1687974 17.3174342,24.3180587 C18.1676603,23.4679371 19.2975946,23 20.5,23 C21.7011718,23 22.831106,23.4679371 23.6816406,24.3174418 C24.5321751,25.1687974 25,26.2990027 25,27.5001542 C25,29.9814237 22.9812911,32 20.5,32 L20.5,32 Z M20.5,24.5793262 C19.7191611,24.5793262 18.9855057,24.8831614 18.4341077,25.4346917 C17.8827097,25.9868389 17.5789474,26.7203619 17.5789474,27.5001542 C17.5789474,29.1103266 18.8892886,30.4206738 20.5,30.4206738 C22.1107113,30.4206738 23.4210526,29.1103266 23.4210526,27.5001542 C23.4210526,26.7203619 23.1169819,25.9865305 22.5652755,25.4343833 C22.013569,24.8831614 21.2799136,24.5793262 20.5,24.5793262 L20.5,24.5793262 Z" id="Shape"></path>
                            <path d="M20.0003904,13 C19.4482624,13 19,12.5523437 19,12 C19,11.4476563 19.4474814,11 19.999219,11 L20.0003904,11 C20.5525186,11 21,11.4476563 21,12 C21,12.5523437 20.5525186,13 20.0003904,13 L20.0003904,13 Z" id="Path"></path>
                        </g>
                    </g>
                </g>
            </g>
        </g>
    </g>
</svg>